<svg xmlns="http://www.w3.org/2000/svg" viewBox="0 0 559.24 287.86"><defs><style>.cls-1,.cls-7{fill:#1f6ec2;}.cls-1,.cls-2,.cls-5{fill-rule:evenodd;}.cls-2,.cls-3{fill:#d4d4d4;}.cls-4{fill:#fff;}.cls-6{fill:#75b5f7;}.cls-8{fill:#fc9;}</style></defs><g id="Layer_2" data-name="Layer 2"><g id="Layer_1-2" data-name="Layer 1"><path d="M7.44,206.92a64.44,64.44,0,0,1-6.5-19.11,63.59,63.59,0,0,1,3.54-34.44,54.21,54.21,0,0,1,21.89-26.29,53.39,53.39,0,0,1,17-6.69h0l.4-25A19.55,19.55,0,0,1,37,94.79a15.14,15.14,0,0,1-10.3-8.88c0-.07-.06-.15-.1-.23l-.08-.21h0a4.67,4.67,0,0,1,6-6.08c6,2.34,12.94-2.12,20.42-6.94,9.19-5.93,19.09-12.32,31.67-10.64C96.25,63.36,102.86,69.09,106.6,77l.35-.51a9.56,9.56,0,0,1,2.82-2.61,7.75,7.75,0,0,1,4.35-1.14,7.35,7.35,0,0,1,6.07,3.59,7.74,7.74,0,0,1,1.06,4.55l37.59-6.43h.08C172,46.14,204.21,17.53,232.08,9.93l.08,0a10.93,10.93,0,0,1,.38-3,11.15,11.15,0,0,1,3.88-5.82,4.69,4.69,0,0,1,7.72,3.25,8.28,8.28,0,0,0,1.74.27H246a31.49,31.49,0,0,0,6.79-.46c4-.65,7.55-1.17,11-1.56s6.87-.63,10.48-.74c2.68-.08,5.37,0,8.2.09l2.57.07a5.3,5.3,0,0,1,.69,0,170.89,170.89,0,0,1,18.81,2.59,143.91,143.91,0,0,1,18.65,5,110.17,110.17,0,0,1,10.54,4.2c3.35,1.54,6.62,3.27,10,5.25,1.77,1,3.63,2.21,5.7,3.53L353.05,25c.68.4,1.22.7,1.61.91s.92.46,1.52.73h0a3.91,3.91,0,0,1,.57.31,5.46,5.46,0,0,1,.66.19,20.37,20.37,0,0,0,9.07,1.08l1.1,0a4.67,4.67,0,0,1,4.89,5.31,58.58,58.58,0,0,1,7.06-2.68,4.68,4.68,0,0,1,5.89,3,4.3,4.3,0,0,1,.19.92,8.23,8.23,0,0,0,1.71.28,17.17,17.17,0,0,0,4-.22l151.81-26a13.34,13.34,0,0,0,2.55-.67,4.7,4.7,0,0,1,3.69-4.24,4.39,4.39,0,0,1,1.24-.1,7.81,7.81,0,0,1,6.52,3.3,7.16,7.16,0,0,1,1.24,3.34,7,7,0,0,1-.58,3.64l0,.06a7.1,7.1,0,0,1-.68,9.37,6.78,6.78,0,0,1-1.5,1.11,4.69,4.69,0,0,1-.05,6.1l-.23.26A14.34,14.34,0,0,0,553,34h0l-.32,27.4a4.68,4.68,0,0,1-8,3.43,29.84,29.84,0,0,0-6.78-5.21,15.7,15.7,0,0,0-6-2h0a4.63,4.63,0,0,1-2-.65l-.07,3.43,3-.49h0a5.73,5.73,0,0,1,.84-.06,4.68,4.68,0,0,1,4.6,4.75L538,76.11a4.72,4.72,0,0,1-.65,2.31,67.1,67.1,0,0,0,7.78,2.67,35.18,35.18,0,0,0,6.33,1.18h0a4.69,4.69,0,0,1,3.1,7.85,20.77,20.77,0,0,0-1.9,2.3,3.72,3.72,0,0,0-.44.77h0l0,1.44c-.09,3.16-.14,4.74-.16,6.22,0,1.63,0,3.25,0,6.48v1.76l.06,0s0-.07,0,0a10.63,10.63,0,0,0,1.39,1.37,4.69,4.69,0,0,1,0,7.57,4.72,4.72,0,0,1,1.53,2.74l.41,2.37a4.68,4.68,0,0,1-1.07,3.84,4.5,4.5,0,0,1,.22.82,4.78,4.78,0,0,1-.22,2.42,14.68,14.68,0,0,1-1.36,3.15,11,11,0,0,1,2.72,4.83,11.34,11.34,0,0,1,0,6,10.22,10.22,0,0,1-4.37,5.91,4.69,4.69,0,0,1-7.13-4.77c.09-1.1-.48-1.77-1.72-2.09-3.37-.87-9.14-.61-17.33.44h0L415.18,162.38a21.42,21.42,0,0,0-7.7,2.49,4.07,4.07,0,0,0-2.1,3,4.62,4.62,0,0,1-1.46,3,11.68,11.68,0,0,1,.72,1.57,17,17,0,0,1,1.05,9.32l0,.11a4.56,4.56,0,0,1,.52.18,6.57,6.57,0,0,1,2.8,2,7.12,7.12,0,0,1,1.48,3.39,9,9,0,0,1-2.4,7.35,12,12,0,0,1-3.39,2.54h0a13.42,13.42,0,0,1-4,1.27,18.49,18.49,0,0,1-9.85-1.44,7.32,7.32,0,0,1-1,5.18,13.34,13.34,0,0,1-.29,4.39,7.75,7.75,0,0,1-2.76,4.46,32.66,32.66,0,0,1-5,11.2c-9.66,13.46-15.76,13.41-18.2,15.69-1.27,2.88-1.58,3.67-2.53,6.17a39.3,39.3,0,0,0-2.57,9.17,9.65,9.65,0,0,0,.37,4,7.08,7.08,0,0,0,2,2.95,8.72,8.72,0,0,1,2.39,2.6,6.88,6.88,0,0,1,.74,5.47,8.44,8.44,0,0,1-2.68,4.09,14.67,14.67,0,0,1-5.29,2.81l-.19.05a261.38,261.38,0,0,1-40,9.55,239.85,239.85,0,0,1-40.12,2.85,233.69,233.69,0,0,1-41.62-4.32,248.22,248.22,0,0,1-41-11.79,10,10,0,0,1-3.17-2,9.77,9.77,0,0,1-2.54-3.7c0-.11-.08-.22-.11-.33a7.54,7.54,0,0,1,.06-5.17A7.92,7.92,0,0,1,189,258a18.67,18.67,0,0,0,4.87-8.63,9.34,9.34,0,0,0-.26-4.85,4.73,4.73,0,0,1-1.19.38h0a39.29,39.29,0,0,1-21.06-2,27.3,27.3,0,0,1-8.67-5.19,16.93,16.93,0,0,1-5.28-8.85,17.51,17.51,0,0,1,1-10.22,40.76,40.76,0,0,1,2-4.26c1.37-2.64,2.94-5.66,3.28-9.08l-42.24,7.21a17.77,17.77,0,0,0-6.36,2,.79.79,0,0,0-.27,1.07,4.68,4.68,0,0,1-2.4,6.17,1,1,0,0,1-.22.09h0c-5.65,2.15-10.26,1.49-13.2-.64a8.64,8.64,0,0,1-3.26-4.54,47,47,0,0,1-11.92,11.46c-2.93,2-5.74,3.53-8.51,5.08-6.2,3.48-12.19,6.84-15.76,12.4A4.69,4.69,0,0,1,51,245c-1.18-3.33-2.32-5.18-4-6.44-1.94-1.47-5-2.63-9.72-4.35a50.72,50.72,0,0,1-7.86-3.68,49.17,49.17,0,0,1-7.07-4.92,15.11,15.11,0,0,0-4.51-2.47,10.8,10.8,0,0,0-4.29-.73,2.56,2.56,0,0,0-1.81.72,3.05,3.05,0,0,0-.47.91h0a4.68,4.68,0,0,1-8.94-.38c-1.12-4.31-1-7.76-.07-10.49a11.09,11.09,0,0,1,3.42-5,11.63,11.63,0,0,1,1.76-1.2Z"/><path class="cls-1" d="M14.42,205.41C-5,173.56,8.94,128.65,47.26,122.05l0,3.35c-22.73,6.41-33.84,36.48-27.34,56.28a36.36,36.36,0,0,0-1.7,16.09,61.09,61.09,0,0,1,1.65-57.4c-11.49,13.64-16,42.72.25,65.41a20,20,0,0,0-5.65-.37ZM368,176.25c-2.68-9.46,3.73-28.92,13.86-26.34,4.63,1.18,4.12,8.36-3,5.38,5,8.66,13.26,2.42,13.22-3.59,0-5-7.68-10.94-17.63-4.32-6.68,4.44-11.27,17.79-9.36,25.42-4.7-5.81-4.12-9.8-4-16.87.5-39.74,1.09-76.41,1.86-115.84.06-3.33,3.23-6.77,5.88-9.84-3.9.14-7.29.52-12.1-1.32a5.47,5.47,0,0,1-.34,4,6.9,6.9,0,0,1-3.59,3c-3.15,1.34-8.08,1.66-14.52.46,2.49,1.93,5.56,4,5.54,6.85-.09,13.4-.31,29.94-.53,44.39-.1,6.38-6,4.9-9.91,2.53a70.43,70.43,0,0,0-13.15-6.3l-.07,4.38c8.31,3.58,22.34,11.26,22.83,18.94a40.82,40.82,0,0,0-3.43-4c-5.56-5.68-12.27-9.21-19.45-12.21l-.05,3.39c5.86,2.63,11,5.27,15.56,10.21,3,3.26,4.11,6,4.16,7.83.07,3.09-4.3,4.06-4.29.51-5.36,4.25-2.6,10.88,1.39,11.87a8.48,8.48,0,0,0,5.84-.83l-.7,44.78c0,3.33-4.27,6.94-6.92,10,7.23-6.72,21.43-9.46,32.93-2.55Zm-47.32,73.57c-17.46,1.6-24.77-4.23,7.4,7.1a1.85,1.85,0,0,0,2.45-.88l-9.85-6.21Zm-16.39-33.11a62.15,62.15,0,0,1,12,5.26l-.17,11a7.89,7.89,0,0,0,1.46,4.72c-7.66-3.81-13.44-12.34-13.3-21ZM319,232.27l.13-8.42a13.4,13.4,0,0,1,4.1,4.66l-.1,6.38a6,6,0,0,0,2.13,5c-5.07-.57-6.35-2.11-6.26-7.63Zm7.3-198.53-.21,12.87-.1,6.54-.48,30.47-4.16-1.38.58-36.59-10.17,5.26,7.3-1.38-.51,32.1,0,1.64-.07,4.31,0,2.77-.06,3.34,0,3L317,179.58c-3.84-1.31-7.87-2.5-12-3.58l.62-39.3c-7.71,13.28-26.81,12.22-35.83,3.57-7.39-7.08-11.25-17.94-10.95-28.66a15.61,15.61,0,0,0,4.92-2.24c-1.51,16.59,6,31.94,23.67,33.08-16-3.68-21.06-14.76-21.37-29a12.35,12.35,0,0,0,2.24,2.27l.35.25a28.55,28.55,0,0,0,3.79,14.32c7.68,13.18,27.71,15.3,32.41.75a9.24,9.24,0,0,0-.35-7,6.06,6.06,0,0,0-7.46-2.79c-3,1.12-4.9,4.65-1.77,8.3-5.93,5.63-13.53-1.68-10.14-8,5.41-10.07,19.42-4.44,20.74-1.17l.45-28.13.06-3.87,0-2.89.05-2.75.06-3.87,0-1.7.34-21.52c.06-3.83-.4-4.79-1.75-5A36,36,0,0,0,315.33,46a31.81,31.81,0,0,0,11-12.24ZM324,182.15l1-62.3.16-10,.18-11.42-4.15-1.79-1.32,83.89c1.41.52,2.8,1.05,4.15,1.59ZM304.78,78.42A44.34,44.34,0,0,0,287.89,78c-15,2.39-23.82,11.79-27.33,23-1.34,4.26-2.2,7.4-6.8,8,2.88,2.71,7.82-.1,9.94-1.57l.92-.64c1.93,8.89,13.3,12.57,15.28,2.58-4.87,5.2-9.91-.71-7.8-8.84,1.57-6,7.82-13.67,17.06-16.87a31.79,31.79,0,0,1,15.55-1.18l.07-4Zm-.11,6.79-1-.15c-9.79-1.25-21.11,2.24-27.5,12.89q9.8-10.08,21.71-10.61a26.79,26.79,0,0,1,6.78.65l.05-2.78ZM119.15,179.89c0,2.18-1.92,4.45-3.59,6.36l19-3.18c-1.61-1.36-3.43-3-3.4-5.19l.56-35.37L143,140.63c-.32,13.62-.55,27.77-.67,35.61-.14,2.08-2.68,4.35-4.34,6.26l19.53-3.27c-1.61-1.36-3.43-2.9-3.51-4.95l.56-35.92c.16-2.73,1.59-4.06,3.26-6.08-1.51-1.37-3-2.75-3.08-4.91l.45-28.84c.25-2,2-4,3.69-5.93l-41.92,7c1.61,1.46,3.44,3,3.41,5.18l-.45,28.3c-.14,2.19-1.7,4.19-3.25,6.08,1.72,1.55,3.12,2.3,3.07,5.24l-.55,35.47Zm124.28-17c-2.51-3-2.63-9.18,2.73-12.71-3,7,4.76,9,6.49,3,1.41-4.91-3.31-26.76-20.18-34.39l-5.87,4.91-.6,38.4c0,2.07,1.9,3.72,3.51,5.08l-19,3.18c1.66-1.91,3.66-4.11,3.58-6.26l.56-35.52c.05-2.94-1.47-3.77-3.08-5.24,1.56-2,3.11-3.88,3.26-6.1l.44-28.2c0-2.18-1.9-3.83-3.51-5.18l18.88-3.17c-1.66,1.91-3.65,4-3.68,6l-.43,27.23c12.22-6.16,30.46-28.77,15-34.89,12.21-1.3,12.62,5.65,21.88,4.21-5.79,4.61-6.77,9.32-10.54,14.8a65.49,65.49,0,0,1-13.73,14.23c6.18,5,10.53,10.86,15.89,11.19,1.14,16.31,19.93,36.76,44.14,25.44,1.75-.81,3.7-3.06,2.14.11-4.51,9.18-24.27,17.55-37,8.62-3.9,7.86-14.65,12.77-20.85,5.29Zm-111.54-32,.35-22.2,11-2c.21.51,0,10.14-.14,22.27v.11L131.89,131v-.11Zm57.54,37.34c0,2.18-1.91,4.34-3.58,6.26l19.76-3.31c-1.61-1.37-3.65-3.1-4.28-4.94l-8.68-29.63c3.22-3.6,7.44-8.86,12.5-12.21a8.21,8.21,0,0,1-3.5-6.38l.43-26.9c0-2.06,2-4.35,3.69-6.26l-41.81,7c1.62,1.36,3.44,2.9,3.52,5L167,125c0,2.3-1.59,4.19-3.26,6.31,1.61,1.36,3,2.21,3.08,4.81l-.56,36c0,2.17-1.92,4.33-3.59,6.26l18.67-3.13c-1.51-1.27-3.33-2.82-3.41-4.87l.2-12.43c.06-3.81,1.86-8,4.76-12l6.5,22.28Zm.25-43.52c-.73,5-7.87,9.36-10.9,14.87l.62-39.23,10.69-1.79-.41,26.15ZM371.57,136c0,2.18-2,4.47-3.69,6.37l41.91-7c-1.61-1.36-3.44-2.9-3.51-5,.12-7.62.34-21.67.56-36,.15-2.73,1.59-4.06,3.25-6.08-1.5-1.39-3-2.77-3.08-4.93.19-11.77.36-22.45.45-28.65.25-2,2-4,3.69-5.94l-41.91,7c1.61,1.47,3.54,3,3.51,5.17h0l-.44,28.11c-.15,2.2-1.81,4.21-3.36,6.12,1.71,1.56,3.23,2.28,3.18,5.22L371.57,136Zm91.19-38.79c-5.81,2.9-7-3.39-3.39-4.93a4.8,4.8,0,0,1,6.18,1.77c1.35,2.15,1.19,5.28,1.16,7.61l-.29,18.45c0,2.17-1.92,4.45-3.59,6.35L507.74,119c-1.62-1.36-3.44-3-3.41-5.19.46-28.81-11.17-37.13-25.69-43.84l.07-4.91L479,48.56l11.68-2-.26,16.66c0,2.29-1.68,3.21-4.44,5.2C491.82,69,497.64,73,501.6,77l.6-37.68c0-2.18,1.92-4.45,3.58-6.36l-41.59,7c1.62,1.36,3.44,3,3.41,5.18-.14,9-.27,17.27-.41,25.67-.14,2.09-1.36,3.92-3.57,6,13.85,6.06,26.43,15.1,25.8,34L478,112.77l.1-6.32c0-2.3,1.69-3.23,4.44-5.21-2.65-3-7.75-7.91-13.52-10.44-16.16-7.08-22.68,7.42-15.7,11.88,3.61,2.31,10.66.42,9.48-5.45Zm50.92,15.09c0,2.07-1.92,4.34-3.59,6.24l41.59-7c-1.61-1.36-3.44-3-3.4-5.08,0-9,0-7.71.25-16.21.14-2,1.92-4.12,3.58-5.92-5.33-.41-11.5-2.52-15.61-4.22a86.07,86.07,0,0,1,.38,10.46c0,3.68,0,8-.09,12.39l-11.46,1.92L525.8,75l8.52-1.53.18-11.54L526,63.37,526.45,41l11.46-1.92-.1,6c0,2.3-1.68,3.23-4.54,5.25,6,.52,11.79,4.57,15.75,8.59l.33-27.62c0-2.18,2-4.36,3.69-6.26l-41.58,7c1.61,1.36,3.43,2.9,3.4,5.08l-.44,28.18c0,2.29-1.59,4.18-3.37,6.32,1.72,1.45,3.23,2.28,3.19,5.11l-.56,35.59ZM442.3,124.26c0,2.18-1.92,4.34-3.59,6.26l19.76-3.31c-1.61-1.37-3.65-3.09-4.28-4.94l-8.68-29.63c3.22-3.59,7.44-8.86,12.5-12.2a8.21,8.21,0,0,1-3.49-6.38l.42-26.9c0-2.07,2-4.36,3.69-6.27l-41.8,7c1.61,1.36,3.43,2.9,3.51,4.94l-.44,28.21c0,2.3-1.59,4.19-3.26,6.32,1.61,1.36,3,2.21,3.08,4.8l-.56,36c0,2.18-1.92,4.34-3.58,6.26l18.66-3.13c-1.51-1.26-3.33-2.82-3.41-4.87L431,114c.06-3.8,1.87-8,4.76-12l6.51,22.28Zm.24-43.51c-.73,5-7.87,9.35-10.9,14.87l.62-39.24L443,54.59l-.42,26.16ZM394.8,126.27l-11.24,1.88L384,98.49c0-2.93,1.48-4.15,3.25-6.29-1.61-1.49-3.11-3-3.07-5.26l.35-22.24,11.24-1.88-.35,22.34v-.1c0,2.28-1.7,4.3-3.37,6.33,1.72,1.56,3.23,2.28,3.19,5.22h0l-.47,29.66ZM113.93,82.1a.14.14,0,0,0,0-.07h0c.19-.44.11-.26,0,.07ZM78.26,215.39C58,230.22,42,210.11,52.44,196.86c6.09-7.69,17.91-10.52,23.76-3.21a16.52,16.52,0,0,0-13-1.2c-5.78,2-10.25,7.18-10.35,13-.25,13.74,13.45,16.84,25.43,10Zm0-92.4c3.2-1.15,8.57-.23,10.24,1.3a311.86,311.86,0,0,0-.68-31.88c-2.9-33.95-22-15-22-14.71l-.67,42.69L60,119.62l.61-39-6.56,4.13,3.7-1-.53,33.79-.07,3.91,0,3-.13,8-.91,58.24a19,19,0,0,1,2.83-1.64l1-62.91,5.2.8-1,60.34c16.69-2.84,18.43,15.45,9,18.07.33-5.13-5-6.55-8.5-4.31a7.85,7.85,0,0,0-2.07,11.46c2.76,3.69,10,4.08,15.11-3.92a34.06,34.06,0,0,0,3.6-8.09c2.68-8.56,5.76-31.14,6-49.28.16-14.07-.79-24.86-8.92-28.25Zm37.05,1.09a15.49,15.49,0,0,0-8.06,1.89c-.18-24.31,5.2-58.42-22.18-62.07C63.33,61,48.44,87.59,31.93,81.19,34.67,88.33,43,89.58,49.52,87L49,117.89,49,121.78l0,3.18-.12,7.82-1,65.61c-5.93,15.18,4.79,27,21,23.89-14.14,3.49-31.54-.16-40.49-11.22-6.39-7.91-7-22.41-2.77-30.91,5-10,16.26-7.34,15.3-1.62-.33,1.92-2.32,3.52-6.31,2.82,3.15,8.28,10.82,4.68,12.37-.56,3-10-16.22-14.5-23.49-1.52-4.5,8-4.1,20.33-1.26,27.92l.46,1.25c-7.11-2.46-18.24-2-14.75,11.45,2.83-7.93,13.69-4.46,18.49-.46a45.7,45.7,0,0,0,13.56,7.79c10.16,3.73,13.47,5.08,16.51,13.63,5.9-9.37,16.42-12.82,25.74-19,34.67-23.11,19.07-88.63,33.19-97.73Zm-56.49-2.49c10.4.75,25.47,5.62,23,18.65-1.89,9.93-8.93,10.88-12.46,8.16C66.2,145.94,66,140.35,72.46,138c-2,4.24,3.89,4.89,4.87,1,2.58-10.34-10-13.71-18.52-14.46l0-3Z"/><path class="cls-2" d="M355.26,28.31a35.12,35.12,0,0,1-3.64-1.91c-3.65-2.26-6.29-4-9.25-5.76a106.23,106.23,0,0,0-19.73-9.06,145.09,145.09,0,0,0-36.36-7.4c-3.89-.09-7.48-.27-10.93-.17a153.81,153.81,0,0,0-20.84,2.24c-5.06.83-14.45,1.59-14-4.12-4.23,3-4.09,11.23,6,11.17C239,22.65,249.12,38.55,261,28.74c4.07-3.36,4.78-10.51-1.78-11.35-2.91-.37-5.44,2.4-3.81,4.25,1.17,1.33,3.91,1.17,4.25-2,3.83-.15,4.37,5.84.69,8.4-4,2.81-11.32,2.13-10.3-5.87a8.07,8.07,0,0,1,2.52-4.56,23.63,23.63,0,0,1,10.13-5.9c-1.22,2.49-.12,7.11,4.72,6.75-1.27-9.19,12.33-10,18.48-10.19C280.92,9.7,273,13.92,269,19.39c-7.53,10.43,5,15.14,6.13,7-9.12,3.48.48-19.43,20.72-17.86A103.71,103.71,0,0,1,339.5,22.07c15.29,8.87,8.27,12.84.27,13.41,5.56.89,9.82.56,12.57-.6a5.68,5.68,0,0,0,3-2.49,4.39,4.39,0,0,0,.15-3.49c-.07-.2-.14-.39-.22-.59ZM255.09,45.24c.62,6.74,6,8.24,9.49,7s6.2-4.92,2.8-8.7c3.29,7.15-9.05,12.58-12.29,1.73ZM239.48,4.44c-2.63,5.78,3.58,8.64,8.05,7.57-6.5-.53-8.82-3.24-8.05-7.57Zm34.18,2.15a39.32,39.32,0,0,0-6.2,2.68c-3.35,2.07-5.19,5.6-1.16,8.41-1.93-.63-2.82-1.77-3-3-.87-5.22,6.65-7.29,10.39-8.06ZM247.88,28.17c-4.39-4.79-3.29-11.14.85-15.38,5.8-5.95,21.54-7.49,29.43-7.9-5.91.73-17.81,2.09-25.43,6.79-5.67,3.5-9.23,9.05-4.85,16.49Zm40.19,39.71c-2.91-3-8.6-.71-8.18,3.12.65,5.85,8,6.38,11.81,3a6.78,6.78,0,0,0,.45-9.68,7.86,7.86,0,0,0-5.28-1.91c-5.95-.2-11.2,3-16.87,4.22,5.76-4.46,9.46-11,10.09-17.17.6-5.94-1.29-11.47-7.82-14.81a13.77,13.77,0,0,0-10.16-1.06c-3.34,1-5.27,3.34-8.29,5.08a21.59,21.59,0,0,1-7.76,3c-8.88,1.08-9.19-7.61-4.55-8.45a2.61,2.61,0,0,0,4.63,2.33c1.27-1.86.45-5.14-3.9-4.79a6.51,6.51,0,0,0-3.9,1.91,5.83,5.83,0,0,0,.52,8.79c3,2.17,8.81,3,16.61-2.35a11.5,11.5,0,0,0-.92,2.51c-2.37,9.53,5.09,13.61,10.22,11.84,5.38-1.85,8.33-9.85.17-12.12.36,3.68-2.49,4.84-4.66,4a4.09,4.09,0,0,1-2.48-3.76c.09-4.23,4.67-6.44,8.77-6.39a10,10,0,0,1,8.31,5.24c5.85,10.57-5.57,27-19.06,27.69-12.44.64-25.17-9.16-24.91-22.83.17-9.09,4.59-15.54,11-21.12-3.17.16-12.71,9.57-13.19,20.21C228.23,56,234.91,69,255.12,70.21c-29,1.88-39.31-35.66-13.94-49a16,16,0,0,1,1.24-5.7c-3.26,1.43-9.9,4.56-15,9.2-3.41,3.09-6.17,6.93-6.25,10.15a5.44,5.44,0,0,0,1.47,4.25C225,30.56,231.3,22.84,238,20.61,213.11,36.37,224.27,75.41,256.74,72c4.47-.47,10.19-2.2,15.59-4,4.54-1.53,16.08-8.4,19.72-1.74,1.58,2.89.52,6.95-2.73,6.68-2.68-.23-4.16-3.93-1.25-5.06Zm8.64-35.42c-6.35-3.7-2.41-11.49,3.93-9.68-3.12,5.89,3.05,7.19,6.18,3.89s2.23-9-2.11-12a14.34,14.34,0,0,0-10.62-2c-11.8,2.31-14.82,14-11.12,22.88,5,12,21.95,19.4,42.6-3.16A30.33,30.33,0,0,1,314.66,45a26.57,26.57,0,0,1-15.76,4.52C277.52,49,269,15.39,293.66,11.05c4.63-.81,9.55-.05,13,2.43,6.17,4.41,6.69,11.29,3.78,15.43s-9.24,6.18-13.74,3.55Z"/><path class="cls-3" d="M168.48,185.27A244.41,244.41,0,0,1,247.39,173c27.27.38,59.37,5.7,81,15.82,2.18,1,4.47,3.92,2.41,6.15-5.31,5.75-8.74,13.64-4.23,21.1,3.57,5.91,5.15,12.73-.4,18.11,6.18-22.48-65.6-29.31-79.24-29.5a209.56,209.56,0,0,0-60.84,8.42c-4,1.16-12.9,5.28-16.13,8.7-8.89,9.42,11.58,18,22.64,15.94-12.75,2.81-34.92-4.24-28.86-19.91,1.53-3.95,5-8.33,5.6-14.71.39-4.2.2-6.95-3.29-11.93-1.86-2.28-2.36-4.42,2.47-5.94Z"/><path class="cls-3" d="M355.71,268.35a244.39,244.39,0,0,1-78.9,12.25,234.4,234.4,0,0,1-81-15.81c-2.26-.86-4.48-3.92-2.42-6.16,5.31-5.75,8.75-13.64,4.23-21.1a52.37,52.37,0,0,1-3.25-5.95c-1.1-2.48-.87-8.37,10.31-13.22,7.38-3.2,21-6,36.9-6.82-18.37,1.87-36,7.06-40.49,11.14-3.65,3.33-2.2,7.07-.84,8.42,14.42,14.24,65.74,17.67,77,17.82,25.92.37,57.31-2.28,79.64-17.2a71.09,71.09,0,0,0,6.43-4.84c-4.25,9.37-8,18-8.48,23.6-.39,4.2.62,8,4.13,11,3.17,2.18,1.52,5.3-3.31,6.82Z"/><path class="cls-3" d="M354,231.55a51.34,51.34,0,0,0,13.51-26.7c1.66-10.08,1-18.22-8.36-22.15a14.86,14.86,0,0,0-14.35,1.72c-4.76,3.4-7.12,9.93-5.58,15.28A10.78,10.78,0,0,0,352.32,207c3.73-1.09,6.51-4.79,4.47-9.27a4.58,4.58,0,0,1-8,2.66c-.4,2.17-3.14,3.34-5.47,1.53,2.81,0,2.7-2.8,3-4.8.35-2.78,1.41-4.68,3.11-5.57,3.93-2.05,7.54.26,9.19,2.7,2,3,1.26,6.54.68,8.79-1.3,5-6.68,6.81-11.37,6.53-5.94-.35-11.36-4.13-12.33-9.67-.11-.64-.2-1.26-.25-1.88h0c-.57,14.9,12.12,11.09,9.58,17.25,2.53,3.2,3.68,8.48-.29,9.17-.06,3.31-.5,6.89-4.19,6-2.36,3.46-5.94,2.9-7.84,2.3,6.76-2.38,4.51-13.15,2.35-20.43-1.83-6.15-2.46-14-.28-20.34a19.61,19.61,0,0,1,12.09-12,22.46,22.46,0,0,1,13.72-.1,16.46,16.46,0,0,1,11.25,11.44c4.6,15.81-4.39,32-17.77,40.29Z"/><path class="cls-2" d="M239.76,13.18c-18.6,5.71-25,15.84-29.76,27.51-.42,1-1.43,4.6-3.66,7.18-2,2.27-5.64,3.1-6.15.87,2.51.71,4-3,1.34-3.9a3.54,3.54,0,0,0-3.21.59c-3.74,3,2.07,11.17,9.06,2.47-2.16,6.58-3.49,12.56-6.52,19.11A22.45,22.45,0,0,1,195,75.25c-4.87,3.94-11.83,5.15-16-1.83-2.81-4.74,2.47-10.8,7.18-7.27-4.3,4.1.36,8.51,3.64,7.89s5.85-4.45,1.81-8.7a10.9,10.9,0,0,0-5.42-3.09c-4.87-1-10.22,1.24-10.79,7.71-.8,9.08,18.9,18.12,27.93-4.4-1,3.38-1.22,8.83,2.87,12,0-3.78,4.57-3.72,4.37-8.92a31.73,31.73,0,0,0-1.3-5.07,33.89,33.89,0,0,1,1.38-17.93c-4.75,18.42,7,30.11,14.33,31.66,9.21,2,15.86-.71,19.89-5.18a10.92,10.92,0,0,1-1.85-.47,16.42,16.42,0,0,1-17.88,3.91c-5.55-2-9.41-8.37-6.33-18.27,1-3.21,1.63-6.93-1.88-10.45a7.19,7.19,0,0,0,5.78,1.65c.14-1.27.66-2.53-2.72-7.27a9.8,9.8,0,0,1-1.93-5.73c-.25-8.27,8.13-16,21.62-22.28Zm-23,22.73c-.09,5.89,1,7.26,5,11.35-4.22-2.26-6.34-5.77-5-11.35Zm-9.29,17.28c-2.82,8.87-5.55,19.06-1.81,22-2.28-4.34-.61-12.76,1.81-22Zm7.08-7.42c4.17,4.48,4.91,5.74,3.22,11.66,1.06-6.23-1.26-8.65-3.22-11.66ZM217,31.11c-6.07,13-8.53,29.12,1.16,41.05-7.35-12.06-5.88-26.17-1.16-41Zm31.37,35.41a19.1,19.1,0,0,0,1.08-8.58A13.38,13.38,0,0,0,242,47.36c-1.69-.77-4.38-1.73-6.46-1.14-4.63,1.3-2.85,7.35,1.52,6.83a3.32,3.32,0,0,0,2.72-3.74c7.66,2.81,9.28,10.35,6.91,16.67a12.44,12.44,0,0,0,1.63.54Z"/><path class="cls-2" d="M276.94,62.13c3.92-3.6,5.47-7.69,6.52-12.75a10.35,10.35,0,0,1,1.18,3.74c3.28-3,5.79-1.2,8.64-2.27-1.83,1.64-.26,5.88-2.78,7.21,2.07.17,3.36,1.31,4.19,3.64-4.28-4-11.7-1.37-17.75.43Z"/><path class="cls-2" d="M177.67,81.28c-6-4.4-6.68-11.33-4.5-17.26,1.92-5.25,6.71-11.18,12-13.42,4.34-1.84,9.32-1.13,10.7,4,1.21,4.51-2,6.8-4.85,5.92-3.2-1-3.67-7.54,1.47-8C186.19,48.31,180,56.84,187,61.6c3.63,2.47,8.56,1.87,10.74-1a8.56,8.56,0,0,0-.16-9.89c-2.26-3-7.13-5-13.59-2.19,11-10.1,18.45-10.28,21.09-3.76,3.88-2.79,3.57-6.89.62-8.59-7.34-4.24-22.94,9.9-27.15,15-7.59,9.31-11.59,16.93-16.05,26-2.81,5.69-4.77,5-11.13,6.11l-34.33,5.87a2.55,2.55,0,0,0-4.43,1.69,2.56,2.56,0,0,0,5,.64l34-5.81,22-3.76h0l4-.69Z"/><path class="cls-3" d="M409,143.25l142.32-24.33.41,2.37L409.48,145.6c-4.13.71-6.47.9-8.27.3-2.21-.73-3-2.2-3-3.66,0-4.2,4.7-5.11,6.18-2.31.51,1,.05,2.38-.76,3.8,1.59.55,3.16-.09,5.42-.48Z"/><path class="cls-3" d="M125.55,191.7l35.25-6c.33.75.67,1.51,1,2.26l-44.54,7.61c-8.66,1.48-10.55-5.45-3.44-7.42.57,5,8.21,4.17,11.7,3.57Z"/><path class="cls-3" d="M408.16,150.35,550.9,126a8.32,8.32,0,0,1-5.41,6c7.56.26,8.73,8.74,4.24,11.59,1.11-8.1-6.73-9.36-24.45-7.08L415.39,155.2c-7.48,1.28-13.13,3.93-13.67,9.72-5.44-4.68-15-3.52-17.75,4.66a7.91,7.91,0,0,0,1.8,8.21c3.72,3.75,10.86,2,11.17-2.8a4,4,0,0,0-1.46-3.4c-2.3-1.75-6.14,1.71-4.76,5.31-6.06-.53-5.28-7.23-1.75-9.91,4.35-3.3,10.62.07,12.28,4.53,3.84,10.29-4,14.33-10.85,13-4.22-.84-7.46-4.2-9-8.06-1.4-3.5-.9-8.78,3.9-13.95,1-1,3-1.69,4.42-2.61,6.36-3.82,6.83-8.48,6-11.88,2.11,3.87,8.8,3,12.44,2.35Zm-2.54,38.74a8,8,0,0,1-4.65,2.37c-5.69.89-12.68-3.19-16-8,3.36,2.5,7,4,10.66,3.77a11.73,11.73,0,0,0,6.32-2.33c4.45-3.24,6.42,1.24,3.67,4.22Z"/><path class="cls-4" d="M402.89,189.29a6,6,0,0,0,1.64-1.21,2.81,2.81,0,0,0,.84-2.22.93.93,0,0,0-.18-.45h0a.42.42,0,0,0-.24-.14c-.43-.12-1.14.1-2.12.81h0a14.31,14.31,0,0,1-3.41,1.83h0a12.86,12.86,0,0,1-3.72.77,12.24,12.24,0,0,1-2.18-.05,12.7,12.7,0,0,0,7.22,1.33,7.07,7.07,0,0,0,2.14-.68Z"/><path class="cls-4" d="M384.71,178.84a8.91,8.91,0,0,1-1.4-1.82,12.41,12.41,0,0,0,2.78,3.64,9.78,9.78,0,0,0,4.59,2.37,10.9,10.9,0,0,0,5.8-.38,7,7,0,0,0,2.7-1.74,5.87,5.87,0,0,0,1.44-2.88,11.05,11.05,0,0,0-.77-6,6.82,6.82,0,0,0-1-1.7,8.32,8.32,0,0,0-3.61-2.71,5.78,5.78,0,0,0-4.13-.15,5.08,5.08,0,0,0-1.29.7,5.69,5.69,0,0,0-1.86,2.66,4.64,4.64,0,0,0-.21,2.28,2.55,2.55,0,0,0,.92,1.56,1.43,1.43,0,0,0,.24.16,5.56,5.56,0,0,1,.43-1.73,6.09,6.09,0,0,1,1.68-2.31,4.91,4.91,0,0,1,2.53-1.15,3.73,3.73,0,0,1,2.79.75,5.25,5.25,0,0,1,1.6,2.08,5.67,5.67,0,0,1,.44,2.6,6.07,6.07,0,0,1-1.84,4,7.7,7.7,0,0,1-2.92,1.77,9.06,9.06,0,0,1-3.45.44,8.45,8.45,0,0,1-5.51-2.46Z"/><path class="cls-4" d="M548.42,127.9l-140,23.93a30.27,30.27,0,0,1-7.16.53,11.31,11.31,0,0,1-3.77-.88,10.53,10.53,0,0,1-.68,2.85c-.91,2.34-2.8,4.71-6.27,6.8a1.78,1.78,0,0,1-.27.17c.34-.11.68-.2,1-.28a13.14,13.14,0,0,1,7.19.36,13.76,13.76,0,0,1,2.25,1,10.33,10.33,0,0,1,4.41-5.3,27.37,27.37,0,0,1,10-3.38L525,134.94h.07c9-1.16,15.6-1.41,19.85-.31,3.07.79,5,2.21,5.89,4.37a5.28,5.28,0,0,0-.15-1.85,4.82,4.82,0,0,0-1.43-2.36,5.81,5.81,0,0,0-3.81-1.37l-7.65-.26,7.18-2.64a7.18,7.18,0,0,0,2.86-1.86,6.29,6.29,0,0,0,.59-.75Z"/><path class="cls-3" d="M117.09,200.1l46.79-8c1,1.88,2,3.73,3,5.56l-45.3,7.75c-5.61,1-12.92,3.29-10.14,9.62-13.81,5.27-16.06-11.23,5.62-14.94Z"/><path class="cls-4" d="M163.05,193.77l-45.7,7.81c-8.21,1.4-12.7,4.63-14.29,7.67a4.56,4.56,0,0,0-.58,2.75,2.68,2.68,0,0,0,1.09,1.77c1.2.87,3.24,1.12,6,.33-.81-3.19.58-5.48,3-7.12s5.84-2.53,8.81-3l43.21-7.39c-.18-.3-.35-.61-.51-.92-.33-.6-.66-1.22-1-1.86Z"/><path class="cls-3" d="M551.4,5.91c3.93-.16,5,4.81,0,5.68C491,22.05,428.21,32.66,366.63,43.2c3.76-6.28,8.45-8.31,15.33-10.53-.33,4.58,6.69,4.93,11.18,4.17L545,10.86c2.52-.43,7.18-1.6,6.45-4.95Z"/><path class="cls-3" d="M553.22,13.49a2.39,2.39,0,1,1-1.87,3.92L366.85,49l0-2.44L551,15a2.37,2.37,0,0,1,2.27-1.55Z"/><path class="cls-3" d="M118.48,83.75l42.15-7.2-1,2L118.36,85.6c-5.44,1.1-9.84-4.49-6.63-8.87,1.91-2.61,4.48-2.13,5.45-.52,1,1.76.24,4.8-3.83,4.43-.27,2.22,2,3.65,5.13,3.11Z"/><path class="cls-2" d="M370.61,224.05c7.65-2.49,12.61-13,12.93-18.56,3.14-.47,2.87-4.64,2.36-7.1,2.56-2.15.89-4.83-.64-7.15,4.08-2.73-2.39-7.14-4.37-11.32-3.08-6.52-2.26-13.22,3.42-19.1-13.85,9.42-9,21.54-6.53,33.71,1.54,7.56.91,20.58-7.17,29.52Z"/><path class="cls-2" d="M236.5,11.06c-9.2,3.57-17.39,6.51-24.53,12.57-2.13,1.81-4.44,4.21-5.16,6.49-1,3.15.41,5.75,3.6,3.24,1.39-1.09,2-3.76,4.63-6.84,5.37-6.3,13.33-11,21.46-15.46Z"/><path class="cls-5" d="M183.74,183.74c-1.34.33-2.67.68-4,1.1s-2.55.92-3.82,1.42-2.52,1.07-3.77,1.63-2.52,1.08-3.78,1.5c-.11-.27-.22-.54-.31-.83l-.27-.84a35,35,0,0,0,4-1.05c1.32-.41,2.64-.83,4-1.21s2.62-.73,3.93-1,2.66-.51,4-.7Zm8.77,23.92c-2.17.72-4.33,1.45-6.45,2.28s-4.23,1.77-6.33,2.71-4.23,2-6.33,3.17-4.28,2.45-6.44,3.82l.45-1.12c.15-.37.3-.74.46-1.11,2-1.12,4-2.19,6-3.13s4-1.77,6.05-2.58,4.08-1.53,6.16-2.2,4.24-1.27,6.41-1.84Zm-.36-2.15c-2,.66-4,1.33-6,2.09s-4,1.64-5.93,2.52-4,1.9-5.95,3-4,2.29-6.07,3.55q.23-.54.45-1.11c.13-.36.26-.72.38-1.08,1.88-1,3.75-2,5.64-2.86s3.76-1.63,5.66-2.38,3.83-1.41,5.79-2,4-1.16,6.05-1.68Zm-.63-2c-1.88.59-3.75,1.2-5.58,1.9s-3.67,1.49-5.49,2.31-3.69,1.76-5.53,2.74-3.74,2.13-5.64,3.28c.13-.35.25-.71.38-1.08s.26-.71.36-1.06c1.75-.9,3.48-1.8,5.23-2.59s3.5-1.5,5.26-2.18,3.56-1.28,5.38-1.83,3.71-1,5.63-1.49Zm-.75-2c-1.75.53-3.47,1.08-5.16,1.71s-3.38,1.38-5.07,2.12-3.4,1.62-5.1,2.53-3.45,1.95-5.21,3c.11-.35.21-.7.31-1.05s.2-.68.31-1c1.61-.8,3.21-1.61,4.83-2.33s3.24-1.36,4.87-2,3.3-1.16,5-1.65,3.44-.92,5.23-1.32Zm-.84-1.94c-1.61.47-3.2,1-4.76,1.54s-3.11,1.25-4.66,1.93-3.14,1.5-4.7,2.33-3.18,1.79-4.8,2.73c.08-.33.15-.67.23-1s.15-.67.23-1c1.49-.71,3-1.44,4.48-2.1s3-1.24,4.52-1.8,3.05-1,4.61-1.48,3.2-.81,4.85-1.15Zm-.89-1.93c-1.49.42-3,.86-4.4,1.39s-2.87,1.14-4.3,1.77-2.88,1.38-4.33,2.14-2.93,1.64-4.42,2.48l.15-1c0-.32.09-.65.15-1,1.39-.61,2.77-1.27,4.17-1.87s2.79-1.13,4.19-1.64,2.84-.94,4.29-1.34,3-.7,4.5-1Zm-.91-1.92c-1.38.38-2.75.77-4.09,1.26s-2.66,1.06-4,1.64-2.68,1.27-4,2-2.72,1.5-4.1,2.25l.06-.93c0-.31,0-.62,0-.92,1.31-.55,2.62-1.14,3.94-1.68s2.62-1,3.93-1.51,2.65-.86,4-1.21,2.77-.62,4.21-.88Zm-.92-1.92c-1.3.34-2.59.71-3.84,1.16s-2.51,1-3.75,1.52-2.51,1.19-3.76,1.85-2.55,1.38-3.84,2.06l0-.9a8.55,8.55,0,0,0-.09-.87c1.26-.47,2.51-1,3.77-1.52s2.5-1,3.76-1.4,2.52-.8,3.81-1.12,2.62-.56,4-.78Zm-.89-1.94c-1.25.32-2.49.67-3.69,1.09s-2.39.93-3.58,1.45-2.39,1.13-3.58,1.74-2.42,1.29-3.65,1.89c0-.29-.09-.57-.15-.85s-.13-.56-.2-.83c1.23-.42,2.45-.91,3.67-1.39s2.44-.91,3.66-1.32,2.44-.76,3.68-1.06,2.54-.52,3.84-.72Zm-.84-2c-1.24.31-2.45.65-3.64,1.06s-2.34.91-3.51,1.4-2.33,1.09-3.49,1.68-2.35,1.21-3.54,1.75L171,195c-.09-.27-.21-.54-.32-.8,1.23-.37,2.46-.84,3.68-1.29s2.44-.88,3.65-1.28,2.43-.73,3.66-1,2.49-.5,3.78-.69Zm-.76-2c-1.25.31-2.47.65-3.67,1.06s-2.37.89-3.54,1.39-2.34,1.06-3.5,1.63-2.36,1.16-3.54,1.65c-.12-.27-.24-.53-.37-.79l-.39-.78c1.26-.33,2.51-.76,3.77-1.2s2.48-.86,3.71-1.26,2.46-.73,3.71-1,2.52-.5,3.82-.68Zm-.63-2c-1.28.32-2.55.66-3.78,1.07s-2.44.9-3.64,1.4-2.42,1.06-3.62,1.63-2.41,1.12-3.62,1.57c-.14-.26-.27-.53-.4-.79s-.26-.53-.38-.8a37.28,37.28,0,0,0,3.89-1.13c1.28-.43,2.56-.84,3.83-1.24s2.54-.72,3.81-1,2.59-.51,3.91-.7Z"/><path class="cls-5" d="M308.33,184.49c1.74.49,3.47,1,5.15,1.66s3.32,1.37,5,2.11,3.26,1.6,4.85,2.53a25,25,0,0,1,4.75,3.57c.12-.25.25-.5.38-.75s.23-.52.34-.78a24.37,24.37,0,0,0-5-3.2c-1.68-.81-3.38-1.49-5.07-2.16s-3.39-1.23-5.1-1.74-3.46-.89-5.22-1.24Zm-6.61,25.64c2.17.76,4.34,1.52,6.47,2.35s4.23,1.75,6.32,2.72a58.5,58.5,0,0,1,6.21,3.52,46.45,46.45,0,0,1,6.12,5.1,8.57,8.57,0,0,0-.1-1c-.07-.35-.16-.7-.27-1.07a39.06,39.06,0,0,0-5.94-4.5,52.86,52.86,0,0,0-6.09-3c-2.06-.8-4.14-1.57-6.26-2.25s-4.28-1.28-6.46-1.89Zm.31-2.26c2.05.71,4.11,1.4,6.13,2.17s4,1.68,6,2.6a59,59,0,0,1,6,3.39,44,44,0,0,1,6,5c-.16-.38-.33-.78-.51-1.18s-.38-.82-.59-1.23a32.43,32.43,0,0,0-5.45-4.19,46.5,46.5,0,0,0-5.64-2.74c-1.92-.74-3.87-1.44-5.86-2.05s-4-1.17-6.12-1.73Zm.49-2.16c1.87.6,3.75,1.21,5.59,1.9s3.69,1.5,5.53,2.34a50,50,0,0,1,5.52,3.12,38.77,38.77,0,0,1,5.53,4.66q-.31-.61-.6-1.23c-.2-.41-.38-.8-.55-1.21a28,28,0,0,0-5-3.86,40.23,40.23,0,0,0-5.13-2.47c-1.75-.65-3.52-1.27-5.33-1.8s-3.71-1-5.6-1.45Zm.57-2.13c1.72.52,3.43,1,5.12,1.66s3.35,1.34,5,2.1a44.65,44.65,0,0,1,5,2.83,32.83,32.83,0,0,1,5,4.33c-.14-.38-.27-.75-.38-1.12s-.19-.71-.26-1.06a24.68,24.68,0,0,0-4.63-3.64,37.54,37.54,0,0,0-4.76-2.26c-1.62-.58-3.26-1.14-4.93-1.6s-3.41-.85-5.16-1.24Zm.62-2.1c1.62.47,3.23,1,4.81,1.51s3.14,1.24,4.69,1.95a38.49,38.49,0,0,1,4.63,2.63,27.63,27.63,0,0,1,4.6,4.06c-.06-.34-.1-.66-.14-1s-.05-.65-.07-1a23.06,23.06,0,0,0-4.42-3.47,33.27,33.27,0,0,0-4.54-2.12c-1.54-.55-3.1-1.07-4.68-1.5s-3.23-.76-4.88-1.1Zm.65-2.09c1.55.44,3.1.88,4.61,1.42s3,1.18,4.47,1.85a36.64,36.64,0,0,1,4.41,2.49,25.85,25.85,0,0,1,4.36,3.87c0-.3,0-.61,0-.92s0-.6,0-.9a21.26,21.26,0,0,0-4.29-3.34,35.25,35.25,0,0,0-4.38-2c-1.5-.52-3-1-4.52-1.42s-3.11-.72-4.7-1Zm.66-2.08c1.52.41,3,.84,4.48,1.36s2.91,1.14,4.35,1.79a39.37,39.37,0,0,1,4.26,2.4,24,24,0,0,1,4.2,3.73c0-.29.07-.58.1-.87s.1-.57.16-.85a20,20,0,0,0-4.23-3.25,37,37,0,0,0-4.31-2c-1.45-.5-2.92-1-4.42-1.37s-3-.69-4.59-1Zm.67-2.08c1.5.4,3,.82,4.43,1.34s2.86,1.12,4.28,1.76a37.86,37.86,0,0,1,4.18,2.35,22.09,22.09,0,0,1,4.12,3.62c.07-.27.14-.54.22-.82l.27-.79a19.89,19.89,0,0,0-4.24-3.18,35.23,35.23,0,0,0-4.31-1.95c-1.45-.51-2.91-1-4.4-1.38s-3-.68-4.55-1Zm.65-2.09c1.51.4,3,.83,4.46,1.35s2.88,1.14,4.3,1.78a41.34,41.34,0,0,1,4.19,2.33,21.65,21.65,0,0,1,4.11,3.56l.33-.77c.13-.25.25-.49.37-.75a20.18,20.18,0,0,0-4.33-3.16,40.48,40.48,0,0,0-4.38-2c-1.48-.52-2.95-1-4.46-1.41s-3-.7-4.59-1ZM307,191c1.55.41,3.08.86,4.57,1.4s2.94,1.17,4.38,1.83a43.63,43.63,0,0,1,4.28,2.34,22.14,22.14,0,0,1,4.19,3.53c.14-.24.27-.48.42-.72s.29-.49.45-.72a20.91,20.91,0,0,0-4.49-3.17,46.11,46.11,0,0,0-4.52-2c-1.52-.54-3-1.06-4.57-1.48s-3.12-.73-4.71-1Zm.57-2.13c1.61.43,3.19.9,4.73,1.47s3,1.23,4.54,1.91,3,1.5,4.43,2.39a22.39,22.39,0,0,1,4.33,3.53l.47-.71.48-.71a22.89,22.89,0,0,0-4.67-3.18c-1.55-.78-3.13-1.43-4.7-2.05s-3.15-1.11-4.75-1.56-3.22-.79-4.86-1.09Zm.49-2.17c1.67.46,3.32,1,4.93,1.56s3.17,1.3,4.73,2,3.12,1.54,4.63,2.45a23.41,23.41,0,0,1,4.52,3.55c.16-.24.32-.48.47-.72s.3-.48.44-.73a23.31,23.31,0,0,0-4.86-3.19c-1.61-.79-3.26-1.46-4.89-2.11s-3.27-1.17-4.92-1.65-3.35-.85-5.05-1.17Z"/><path class="cls-5" d="M217.6,269.08c-1.9-.49-3.78-1-5.64-1.61s-3.67-1.26-5.49-1.93-3.62-1.43-5.39-2.23a37.6,37.6,0,0,1-5.24-2.89,6.17,6.17,0,0,0-.3.75l-.27.77a37.87,37.87,0,0,0,5.48,2.52c1.84.69,3.7,1.28,5.56,1.86s3.72,1.08,5.6,1.54,3.78.86,5.69,1.22Zm7.07-23.86c-2.09-.72-4.19-1.45-6.28-2.2s-4.18-1.57-6.27-2.41-4.19-1.79-6.25-2.83a65.72,65.72,0,0,1-6.18-3.65l.46,1.05.47,1a50.28,50.28,0,0,0,5.75,3c1.95.85,3.95,1.58,5.95,2.29s4.05,1.3,6.1,1.91,4.15,1.18,6.25,1.76Zm-.31,2.1c-2-.66-3.94-1.32-5.9-2s-3.94-1.46-5.9-2.24-3.93-1.68-5.86-2.66a56.21,56.21,0,0,1-5.79-3.45c.11.33.22.66.32,1l.33,1a46.71,46.71,0,0,0,5.45,2.88c1.84.8,3.73,1.47,5.64,2.13s3.83,1.21,5.78,1.77,3.94,1.08,5.93,1.61Zm-.51,2c-1.87-.61-3.73-1.22-5.59-1.87s-3.71-1.36-5.56-2.09-3.7-1.58-5.52-2.5a50.81,50.81,0,0,1-5.45-3.28c.07.31.13.62.2.93s.12.62.19.94a41.82,41.82,0,0,0,5.2,2.74c1.76.75,3.57,1.39,5.38,2s3.65,1.13,5.5,1.65,3.76,1,5.65,1.47Zm-.61,2c-1.78-.56-3.57-1.13-5.34-1.74s-3.54-1.29-5.3-2-3.52-1.5-5.25-2.37a45.55,45.55,0,0,1-5.17-3.15c0,.3,0,.6.08.89s.05.59.05.88a38,38,0,0,0,5,2.65c1.69.72,3.43,1.32,5.17,1.91s3.52,1.07,5.3,1.55,3.6.92,5.42,1.36Zm-.67,2c-1.73-.54-3.45-1.07-5.16-1.65s-3.41-1.24-5.11-1.89-3.39-1.43-5.05-2.28a40.71,40.71,0,0,1-5-3c0,.28,0,.56,0,.85a7.34,7.34,0,0,1-.08.82,38,38,0,0,0,4.92,2.58c1.65.69,3.35,1.27,5,1.84s3.42,1,5.15,1.48,3.49.87,5.26,1.28Zm-.71,1.93c-1.69-.5-3.38-1-5.05-1.58s-3.33-1.18-5-1.82-3.29-1.39-4.91-2.2a37.7,37.7,0,0,1-4.81-3c0,.27-.09.54-.12.81s-.13.52-.19.78a33.93,33.93,0,0,0,4.85,2.52c1.63.68,3.31,1.25,5,1.79s3.36,1,5.07,1.45,3.43.82,5.16,1.2Zm-.73,1.94c-1.67-.49-3.35-1-5-1.54s-3.28-1.16-4.91-1.79-3.25-1.36-4.84-2.15a35.61,35.61,0,0,1-4.73-2.88c-.07.25-.14.51-.23.76l-.27.76a34.17,34.17,0,0,0,4.85,2.48c1.63.67,3.29,1.23,5,1.77s3.35,1,5,1.42,3.41.8,5.13,1.17Zm-.73,1.93q-2.52-.7-5-1.51c-1.65-.55-3.28-1.16-4.9-1.78s-3.24-1.34-4.82-2.12a34,34,0,0,1-4.7-2.85c-.1.25-.21.49-.32.73l-.33.74a35,35,0,0,0,4.88,2.47c1.65.66,3.32,1.22,5,1.76s3.36,1,5.06,1.41,3.42.8,5.14,1.15Zm-.71,1.95c-1.7-.47-3.39-1-5.06-1.52s-3.31-1.15-4.95-1.78-3.26-1.34-4.86-2.12a35.73,35.73,0,0,1-4.73-2.82l-.37.71c-.13.24-.25.48-.39.71a33.4,33.4,0,0,0,5,2.47c1.66.66,3.36,1.22,5.05,1.77s3.41,1,5.13,1.43,3.45.8,5.2,1.15Zm-.67,2c-1.74-.47-3.46-1-5.16-1.52s-3.37-1.18-5-1.8-3.32-1.36-4.95-2.14a33.56,33.56,0,0,1-4.81-2.83l-.41.71c-.13.23-.28.47-.42.7a34.06,34.06,0,0,0,5.09,2.48c1.71.67,3.44,1.24,5.17,1.8s3.48,1,5.23,1.45,3.52.8,5.3,1.15Zm-.61,2c-1.78-.48-3.55-1-5.3-1.55s-3.45-1.2-5.16-1.84-3.41-1.37-5.07-2.15a35.93,35.93,0,0,1-4.94-2.85c-.13.24-.27.47-.41.7l-.42.71a35,35,0,0,0,5.22,2.5c1.75.67,3.53,1.25,5.31,1.82s3.55,1,5.34,1.48,3.61.82,5.43,1.18Zm-.5,2c-1.84-.49-3.67-1-5.46-1.57s-3.55-1.23-5.31-1.88-3.5-1.4-5.22-2.19a36.88,36.88,0,0,1-5.08-2.87c-.14.23-.27.47-.4.71s-.25.48-.36.73a36.5,36.5,0,0,0,5.35,2.52c1.79.67,3.62,1.26,5.44,1.83s3.63,1.06,5.47,1.52,3.69.84,5.57,1.2Z"/><path class="cls-5" d="M335.61,270.84c1.87-.42,3.73-.86,5.55-1.38s3.58-1.11,5.36-1.69,3.51-1.27,5.22-2a34.14,34.14,0,0,0,5.08-2.64l.65.63.68.64a39.14,39.14,0,0,1-5.64,2.38c-1.87.62-3.76,1.16-5.64,1.69s-3.74.95-5.62,1.36-3.75.72-5.64,1Zm-6.32-24.07c2.12-.65,4.24-1.31,6.35-2s4.23-1.44,6.34-2.2,4.24-1.66,6.33-2.64a66.31,66.31,0,0,0,6.3-3.46l-.51,1.05-.51,1a53.16,53.16,0,0,1-5.84,2.84c-2,.79-4,1.45-6,2.09s-4.08,1.18-6.15,1.72-4.19,1-6.3,1.56Zm.24,2.11c2-.59,4-1.19,6-1.83s4-1.33,5.95-2,4-1.56,5.93-2.47a58.5,58.5,0,0,0,5.9-3.27l-.4,1-.39,1A47.2,47.2,0,0,1,347,244c-1.86.74-3.76,1.34-5.67,1.94s-3.85,1.09-5.81,1.58-4,.95-6,1.41Zm.45,2c1.87-.54,3.73-1.08,5.6-1.67s3.71-1.24,5.57-1.9,3.73-1.45,5.56-2.32a48.52,48.52,0,0,0,5.53-3.1l-.29.95c-.09.32-.19.64-.29,1a40.74,40.74,0,0,1-5.19,2.54c-1.76.7-3.56,1.26-5.37,1.82s-3.64,1-5.49,1.45-3.74.86-5.63,1.27Zm.55,2c1.76-.49,3.53-1,5.29-1.53s3.51-1.15,5.27-1.78,3.51-1.36,5.24-2.18a43.25,43.25,0,0,0,5.2-2.95c-.06.3-.12.61-.19.91s-.12.61-.17.91a36.7,36.7,0,0,1-5,2.44c-1.68.65-3.39,1.18-5.11,1.7s-3.46.93-5.22,1.34-3.56.78-5.35,1.14Zm.61,2c1.68-.46,3.37-.92,5.05-1.43s3.34-1.08,5-1.67,3.34-1.29,5-2.06a40.47,40.47,0,0,0,4.93-2.83l-.09.87a8.67,8.67,0,0,0-.06.87,32.45,32.45,0,0,1-4.78,2.34c-1.61.62-3.26,1.12-4.91,1.61s-3.32.88-5,1.25-3.4.72-5.12,1Zm.64,2c1.63-.42,3.26-.85,4.87-1.34s3.22-1,4.82-1.59,3.2-1.23,4.78-2a36,36,0,0,0,4.71-2.73v.85c0,.28,0,.55.05.82a30.67,30.67,0,0,1-4.65,2.27c-1.56.59-3.17,1.08-4.76,1.54s-3.23.84-4.86,1.19-3.29.66-5,1Zm.67,2c1.59-.4,3.18-.81,4.75-1.27s3.12-1,4.67-1.54,3.11-1.19,4.64-1.91a32.71,32.71,0,0,0,4.56-2.64c0,.27.05.55.08.82s.11.52.16.79a29.93,29.93,0,0,1-4.57,2.21c-1.54.58-3.11,1-4.68,1.49s-3.16.81-4.76,1.15-3.22.62-4.85.9Zm.67,1.95c1.57-.38,3.14-.78,4.68-1.23s3.08-1,4.6-1.5,3.06-1.15,4.55-1.85a30.82,30.82,0,0,0,4.47-2.58,6.66,6.66,0,0,0,.19.77l.24.77a29.08,29.08,0,0,1-4.56,2.17c-1.53.56-3.09,1-4.65,1.47s-3.13.8-4.72,1.12-3.18.61-4.8.86Zm.65,2c1.58-.37,3.14-.76,4.69-1.21s3.08-1,4.6-1.48,3-1.15,4.52-1.84a29.76,29.76,0,0,0,4.43-2.54c.09.25.19.49.3.74s.2.49.31.74a29.56,29.56,0,0,1-4.61,2.17c-1.54.56-3.11,1-4.68,1.46s-3.15.79-4.74,1.12-3.2.59-4.82.84Zm.61,2c1.61-.36,3.2-.75,4.77-1.21s3.12-1,4.66-1.5,3.07-1.14,4.58-1.82a29.92,29.92,0,0,0,4.47-2.53l.37.71c.13.24.26.48.41.71a29.1,29.1,0,0,1-4.74,2.18c-1.58.57-3.19,1-4.79,1.49s-3.21.8-4.83,1.13-3.26.6-4.9.84Zm.54,2c1.66-.37,3.31-.77,4.93-1.24s3.21-1,4.8-1.53,3.16-1.17,4.7-1.86a30.2,30.2,0,0,0,4.59-2.54c.15.23.29.46.45.69l.51.69a32.13,32.13,0,0,1-4.94,2.21c-1.64.58-3.31,1.05-5,1.52s-3.32.84-5,1.19-3.36.62-5.06.87Zm.45,2c1.74-.4,3.48-.81,5.17-1.3s3.36-1,5-1.59,3.3-1.21,4.91-1.91a32.18,32.18,0,0,0,4.78-2.57l.56.66c.19.22.38.44.59.66a35.1,35.1,0,0,1-5.24,2.28c-1.74.6-3.5,1.1-5.25,1.59s-3.49.88-5.24,1.25-3.53.66-5.3.93Z"/><path class="cls-6" d="M77.34,145.12a11.81,11.81,0,0,0,2-4.53,5.59,5.59,0,0,1-4.07,3.32,5.19,5.19,0,0,1-2.45-.09,4.44,4.44,0,0,1-2.11-1.33.94.94,0,0,1-.25.32h0a2.72,2.72,0,0,0,.15-.43l0,0-.18-.24-.1.14a3,3,0,0,0-.64,1.43,2.86,2.86,0,0,0,.14,1.39c1.11,3.09,6.27,1.69,7.54.05ZM14.22,169a58.19,58.19,0,0,0,2,16.95,43,43,0,0,1,1.09-4.24c-.08-.26-.15-.49-.2-.7-4.5-15.94,1.26-35.9,12.8-47.75-11,8.61-15.33,21.87-15.73,35.74Zm346.6,1.76c-2.32-4.21-2.25-7.83-2.15-12.9,0-.62,0-1.26,0-1.93.25-19.87.52-39,.83-58s.64-38.1,1-57.81c.05-2.6,1.38-5,3.07-7.28a22.76,22.76,0,0,1-4.43-.58,7.63,7.63,0,0,1-.66,1.86,8.29,8.29,0,0,1-1.76,2.25,25.16,25.16,0,0,0,2.66.23c-1.69,2.26-3,4.68-3.07,7.29-.38,19.71-.72,38.74-1,57.8s-.57,38.17-.82,58c0,.67,0,1.31,0,1.93a36.89,36.89,0,0,0,.42,8.28,32,32,0,0,1,5.92.85ZM354.27,38l-.53.24a20.13,20.13,0,0,1-7.11,1.37c-.49,0-1,0-1.51,0a6.74,6.74,0,0,1,1.1,3.36,15.73,15.73,0,0,0,3.33-1,10.76,10.76,0,0,0,2.8-1.69A8.33,8.33,0,0,0,354.27,38ZM341,94.46a7.14,7.14,0,0,1-1.74.17,12.45,12.45,0,0,1-4.08-.87c1.09.76,2.14,1.55,3.12,2.36.35.29.69.58,1,.87a5.5,5.5,0,0,0,1.13-1.34,5.93,5.93,0,0,0,.56-1.19Zm-3.17,23.18-.28,0a4.27,4.27,0,0,1-2-.39,2.69,2.69,0,0,1-.29-.16,4,4,0,0,0-.18,2.58,4.17,4.17,0,0,0,.42,1.1,5.06,5.06,0,0,0,2.37-3.15ZM310,221.45c-1-.42-2-.83-3-1.23a20.69,20.69,0,0,0,2.67,6.88h0v0l.14.23.11.16a23.2,23.2,0,0,0,3.8,4.58l.14-8.75c-1.19-.66-2.49-1.29-3.89-1.9Zm2.29-168.21A2.38,2.38,0,0,1,309.62,52a1.73,1.73,0,0,1-.14-.31l-.46.18a18.35,18.35,0,0,1,.25,3.83l0,1.08,3.15-.59L312,85.36l0,1.64-.07,4.31,0,2.77-.05,3.34-.05,3L310.54,175l1.3.38c.93.28,1.87.56,2.81.86l1.25-79.61.05-3,.05-3.33.05-2.78.06-4.31,0-1.64.46-29.16-4.29.81Zm-23.33,91a21.4,21.4,0,0,0,5-1,17.45,17.45,0,0,1-1.91.22,18.5,18.5,0,0,1-2.47,0,2.51,2.51,0,0,1-.6.8ZM296.17,119a8.33,8.33,0,0,1,1.7-.44c-.36-.07-.73-.14-1.11-.19a10.9,10.9,0,0,0-5.47.55c-7.45,3-4.71,12,1.1,10.55-2.9-5.78.78-8.55,1.35-9a8.15,8.15,0,0,1,2.43-1.43Zm-.68-39.24c-9.67,0-19.34,2.88-26,10.18,4.27-3.14,20.08-9.54,26-10.18ZM270.93,112a6.09,6.09,0,0,0,2.29.88q-.23-.13-.45-.3c-7.45-5.32-1.94-17.64,3-23a31.1,31.1,0,0,0-3.28,2.82c-5.57,5.51-10.08,14.34-1.56,19.56ZM124.58,182.31l5.2-.87a6.56,6.56,0,0,1-1-3.59l.54-34.3-2,.33a2.42,2.42,0,0,0-2.2,2.36l-.56,35.37c0,.24,0,.47,0,.7Zm22.81-3.82,5.21-.88a6.42,6.42,0,0,1-1-3.25v-.12h0l.56-35.91c0-.11,0-.21,0-.32a9.19,9.19,0,0,1,2.38-5.56,9.77,9.77,0,0,1-.76-.92,7.19,7.19,0,0,1-1.46-4.08v-.12h0l.46-28.84a2.42,2.42,0,0,1,.05-.47,7.84,7.84,0,0,1,.67-2.09l-31.76,5.32a6.39,6.39,0,0,1,1,2.9l26.56-4.46a8.05,8.05,0,0,0-.66,2.09,2.63,2.63,0,0,0-.06.48l-.45,28.84h0v.11a7.15,7.15,0,0,0,1.46,4.09,11.35,11.35,0,0,0,.75.91,9.27,9.27,0,0,0-2.37,5.57c0,.1,0,.21,0,.31L147.36,178h0v.12c0,.12,0,.24,0,.36Zm-17.9-47.66.33-21.15-2,.36a2.42,2.42,0,0,0-2.13,2.36l-.35,22.2v.11h0a3.22,3.22,0,0,0,0,.43,2.41,2.41,0,0,0,2.76,2l11-1.85a2.4,2.4,0,0,0,2.2-2.36v-.11l0-1-9.08,1.52a2.4,2.4,0,0,1-2.76-2,3.11,3.11,0,0,1,0-.43h0v-.11Zm131.62,26.1c-6,4.16-13.29,4.57-16.79,0l-.07-.09,0,.2c-1.13,8.55,13.78,9.09,16.89-.13Zm33.29-3.73a33,33,0,0,1-6.91,1.23A30.58,30.58,0,0,1,267.81,149a36.68,36.68,0,0,1-12.24-14.53,31.83,31.83,0,0,1-2.73-9c-3.78-1-6.93-3.9-10.51-7.22-1.48-1.37-3-2.81-4.7-4.17h0a2.11,2.11,0,0,1-.39-.4,2.38,2.38,0,0,1-.28-2.44c-1.13,1-2.29,2-3.47,2.85a2.39,2.39,0,0,0-.9,2.31,2.31,2.31,0,0,1,.87.21,36.81,36.81,0,0,1,13.71,10.66c4.47,6,6.93,11.39,11.77,17.79,8.1,10.73,18.7,17.27,35.46,8.16Zm-55-44.27A67.42,67.42,0,0,0,245,103.8a57.66,57.66,0,0,0,5.92-7.18,52.12,52.12,0,0,0,2.94-5,41.47,41.47,0,0,1,3.92-6.23,21.72,21.72,0,0,1-4.83-2,21.24,21.24,0,0,0-4.38-1.78,10.74,10.74,0,0,1,1.31,6.11,17.45,17.45,0,0,0,3.71,1.39,40.76,40.76,0,0,0-3.92,6.24,55.71,55.71,0,0,1-2.94,5,57.77,57.77,0,0,1-5.93,7.18c-.44.45-.89.91-1.35,1.36Zm-5.15,2.66a38.72,38.72,0,0,1-6.45,4.31,2.37,2.37,0,0,1-1.32.37,2.41,2.41,0,0,1-2.37-2.44l.43-27.24a6.47,6.47,0,0,1,.62-2.57l-8.57,1.44a6.59,6.59,0,0,1,1,2.88l3.32-.55a6.3,6.3,0,0,0-.61,2.57l-.43,27.23a2.4,2.4,0,0,0,3.69,2.07,45.66,45.66,0,0,0,10.64-8.07Zm-14.85,54.83,5.23-.88a6.2,6.2,0,0,1-1.06-3.5l.61-38.4h0a2.49,2.49,0,0,1,.26-1l-3.59,3a2.39,2.39,0,0,0-.86,1.8h0l-.6,38.4c0,.21,0,.41,0,.61Zm-24.62,4.12,5.74-1a8.33,8.33,0,0,1-1.48-2.6.76.76,0,0,1-.06-.2l-8.65-29.52a2.41,2.41,0,0,1,.55-2.31c.38-.42.92-1,1.49-1.69a72.29,72.29,0,0,1,9-9.12,9.39,9.39,0,0,1-.79-1.22,11.42,11.42,0,0,1-1.37-4.81.71.71,0,0,1,0-.14h0l.42-26.9a7,7,0,0,1,.74-2.9l-31.57,5.29a6.32,6.32,0,0,1,1,2.89l26.36-4.41a6.94,6.94,0,0,0-.73,2.89l-.42,26.9h0v.14a11.38,11.38,0,0,0,2.16,6,72.31,72.31,0,0,0-9,9.12l-1.48,1.69a2.37,2.37,0,0,0-.55,2.3l8.64,29.52Zm-23.4,3.92,5.17-.86a6.52,6.52,0,0,1-1-3.17v-.12h0l.19-12.43a18.79,18.79,0,0,1,1.43-6.62,28.61,28.61,0,0,1,1.94-3.93,2.39,2.39,0,0,0-2.34.95A31.45,31.45,0,0,0,173,155a18.89,18.89,0,0,0-1.43,6.63l-.2,12.43h0v.12a2.11,2.11,0,0,0,0,.26Zm7-32.52a2.47,2.47,0,0,1-.82-.27,2.4,2.4,0,0,1-1.25-2.14h0l.6-38.16-2,.33a2.4,2.4,0,0,0-2.2,2.36l-.62,39.23h0a2.4,2.4,0,0,0,4.5,1.19,17.87,17.87,0,0,1,1.76-2.54Zm221.26-7.31,5.22-.88a6.3,6.3,0,0,1-1.05-3.24v-.12h0l.57-36c0-.11,0-.21,0-.32a9.18,9.18,0,0,1,2.37-5.56,7.38,7.38,0,0,1-2.21-5v-.11h0l.45-28.66a1.86,1.86,0,0,1,.06-.48,7.58,7.58,0,0,1,.66-2.09L374.1,57.49a6.22,6.22,0,0,1,1,2.89L401.59,56a7.84,7.84,0,0,0-.67,2.09,2.42,2.42,0,0,0-.05.47l-.45,28.66h0v.12a7.44,7.44,0,0,0,2.22,5,9.18,9.18,0,0,0-2.37,5.56c0,.1,0,.21,0,.31l-.56,36h0v.12c0,.12,0,.24,0,.36ZM393,129,384,130.51a2.39,2.39,0,0,1-2.76-2,2.25,2.25,0,0,1,0-.44h0l.46-29.65a8.81,8.81,0,0,1,2.4-6.12,13.54,13.54,0,0,1-.88-1.12,7.34,7.34,0,0,1-1.34-4.32l.34-21.16-2,.33a2.4,2.4,0,0,0-2.2,2.36l-.35,22.24A7.22,7.22,0,0,0,379,95a10.86,10.86,0,0,0,.88,1.12,8.78,8.78,0,0,0-2.4,6.12L377,131.88h0a3.11,3.11,0,0,0,0,.43,2.4,2.4,0,0,0,2.76,2l11.05-1.85a2.4,2.4,0,0,0,2.2-2.36l0-1.08Zm74.56-36.17a13.14,13.14,0,0,1,1.54,7.05l1,.76a47.1,47.1,0,0,1,4.54,4c-2,1.52-3.18,2.83-3.23,5.52l-.09,6.32h0a2.15,2.15,0,0,0,0,.43,2.39,2.39,0,0,0,2.76,2L485.63,117h0a2.41,2.41,0,0,0,2-2.29c0-.38,0-.75,0-1.11l-9.29,1.55a2.39,2.39,0,0,1-2.76-2,2.08,2.08,0,0,1,0-.43h0l.1-6.31c0-2.7,1.2-4,3.22-5.53a47.23,47.23,0,0,0-4.54-4A31.23,31.23,0,0,0,468,93l-.43-.18Zm30.17,25.38,5.2-.87a6.61,6.61,0,0,1-1-3.58c.22-13.84-2.4-22.67-6.78-28.78s-10.57-9.64-17.52-12.85a2.39,2.39,0,0,1-1.39-2.22h0l.08-4.91.24-15.39-2,.33a2.4,2.4,0,0,0-2.2,2.36l-.26,16.47L472,73.67h0a2.42,2.42,0,0,0,1.4,2.22c6.94,3.2,13.17,6.77,17.52,12.85s7,14.94,6.78,28.77a5.2,5.2,0,0,0,0,.69Zm-2.57-49.12a34.5,34.5,0,0,1,4.09,2.71l.51-32.48a7.56,7.56,0,0,1,.73-3L469,41.59a6.74,6.74,0,0,1,1,2.9l26.36-4.42a7.44,7.44,0,0,0-.73,3l-.41,26Zm46.51,41.76,5.19-.87a6.31,6.31,0,0,1-1-3.48c0-.07,0-.13,0-.19v-1.53c0-3.82,0-5.75,0-6.58s.07-2.7.17-6.31l0-1.64v-.1h0a8.64,8.64,0,0,1,1.47-4c-1.11-.23-2.22-.49-3.31-.79-1.79-.48-3.53-1-5.12-1.61,0,.54.05,1.08.07,1.61,0,1.2,0,2.34,0,3.55l.8.22c1.1.29,2.21.56,3.32.78a8.63,8.63,0,0,0-1.48,4h0V94l0,1.64c-.11,3.6-.16,5.4-.17,6.3s0,2.77,0,6.59v1.53a1.09,1.09,0,0,0,0,.18,3.84,3.84,0,0,0,0,.59ZM535,105.75l-9.29,1.55a2.39,2.39,0,0,1-2.76-2,2.25,2.25,0,0,1,0-.44h0L523.38,76l-2.08.37a2.42,2.42,0,0,0-2.1,2.35l-.47,29.93h0a3.11,3.11,0,0,0,0,.43,2.4,2.4,0,0,0,2.76,2l11.27-1.89a2.4,2.4,0,0,0,2.2-2.35l0-1.08ZM527.8,72.21l4.14-.75.11-6.68-5.67,1a2.39,2.39,0,0,1-2.76-2,2.54,2.54,0,0,1,0-.55L524,42.08l-2.17.36h0a2.4,2.4,0,0,0-2,2.32L519.4,67a2.57,2.57,0,0,0,0,.55,2.4,2.4,0,0,0,2.76,2l5.66-1-.05,3.66ZM542.57,51a34.19,34.19,0,0,1,4.12,2.73L547,31.31h0a7.35,7.35,0,0,1,.7-2.89l-31.37,5.26a6.5,6.5,0,0,1,1,2.9l26.2-4.39a7.19,7.19,0,0,0-.7,2.89h0L542.57,51Zm-94.91,75.62,5.74-1a8.33,8.33,0,0,1-1.48-2.6,1.39,1.39,0,0,1-.06-.19l-8.65-29.53a2.41,2.41,0,0,1,.55-2.31l1.49-1.69a73,73,0,0,1,9-9.12,9.39,9.39,0,0,1-.79-1.22,11.57,11.57,0,0,1-1.37-4.81V74h0l.42-26.9a7.2,7.2,0,0,1,.74-2.9l-31.58,5.29a6.54,6.54,0,0,1,1,2.9L449.07,48a7.18,7.18,0,0,0-.73,2.9l-.42,26.9h0v.14a11.6,11.6,0,0,0,1.38,4.81,12.5,12.5,0,0,0,.78,1.22,72.19,72.19,0,0,0-9,9.12l-1.49,1.69a2.39,2.39,0,0,0-.55,2.31l8.64,29.51Zm-23.4,3.93,5.17-.87a6.49,6.49,0,0,1-1-3.17v-.12h0l.19-12.42a19,19,0,0,1,1.43-6.63,28.13,28.13,0,0,1,1.95-3.93,2.4,2.4,0,0,0-2.35,1,31.51,31.51,0,0,0-3.79,6.75,18.79,18.79,0,0,0-1.43,6.62l-.2,12.43h0v.12c0,.09,0,.18,0,.27ZM431.31,98a2.09,2.09,0,0,1-.82-.27,2.4,2.4,0,0,1-1.25-2.14h0l.6-38.16-2,.33a2.42,2.42,0,0,0-2.2,2.36L425,99.35h0a2.4,2.4,0,0,0,4.5,1.19A17.4,17.4,0,0,1,431.31,98ZM76.44,219.45c-16.26,9.39-35.63,10.89-50-6.88a21.05,21.05,0,0,1-1.88-2.74,2.39,2.39,0,0,1-2.73.88h0a15.69,15.69,0,0,0-8.47-.73,5.37,5.37,0,0,0-2.16,1A4.1,4.1,0,0,0,10,212.87a5.47,5.47,0,0,0-.2.75,7.59,7.59,0,0,1,1.08-.14,11,11,0,0,1,3.2-.72,17.83,17.83,0,0,1,7.19,1.11,22.69,22.69,0,0,1,6.66,3.71A43.06,43.06,0,0,0,34,221.82,44.21,44.21,0,0,0,40.73,225c8.18,3,19.77,5.74,35.71-5.52ZM83,218.23c18.16-14.07,20.44-42,22.22-63.82.91-11.16,1.7-20.85,4.5-27a11.15,11.15,0,0,0-1.29.61,2.4,2.4,0,0,1-3.27-.92,2.46,2.46,0,0,1-.3-1.28c0-3.45.06-7.1.15-10.84.52-21.53,1.1-45.89-20.24-48.74-10-1.34-18.78,4.31-26.92,9.56-6.82,4.4-13.23,8.54-20,8.77,5.83,3.17,10.71-1.71,15.81-5,6.23-4,12.83-8.28,20.08-9.45a12,12,0,0,1,2.31-.36,10.36,10.36,0,0,1,1.76,0A23.56,23.56,0,0,1,80.6,70c21.35,2.85,20.76,27.22,20.25,48.75-.09,3.73-.18,7.39-.15,10.84a2.37,2.37,0,0,0,.3,1.28,2.4,2.4,0,0,0,3.26.92,11.34,11.34,0,0,1,1.3-.61c-2.8,6.11-3.59,15.8-4.5,26.95-1.64,20.06-3.69,45.18-18,60.06ZM50.94,85a2.4,2.4,0,0,1,.8,1,2.35,2.35,0,0,1,.17.93h0l-.48,31-.07,3.88,0,3.19-.12,7.82-1,63,.34-.44A22,22,0,0,1,54,191.92a2.39,2.39,0,0,1-.32-1.24l.92-58.23.12-8,0-3,.06-3.9.48-30.64-.61.17A2.42,2.42,0,0,1,52,86a2.35,2.35,0,0,1-.35-1.47l-.73.45Zm10.8-6.5A2.39,2.39,0,0,1,63,80.68l-.58,36.87.4.06.63-39.95a9.17,9.17,0,0,1,1.15-1.51,21.31,21.31,0,0,0-2.87,2.37ZM85,125.25a16.29,16.29,0,0,1,1.77,3,1.09,1.09,0,0,0,0-.18c0-2.16.49-2.3-1.78-2.84ZM61.33,187.92l.45-.14a2.11,2.11,0,0,1,0-.51L62.65,129l-.4-.06-.92,59Zm-3.7,11.24c-.13.16-.25.32-.37.49a14.42,14.42,0,0,1,2.52-1.17c3.78-1.32,12.11-1.56,14.64,2.41a6.79,6.79,0,0,1,.41.75c7.49-8-10.91-10.36-17.2-2.48ZM42.72,175.24a6.12,6.12,0,0,1,.49,3.68c0,.08,0,.16-.05.24a5.62,5.62,0,0,1-2.56,3.64,5.14,5.14,0,0,1-.18,1h.1a4.23,4.23,0,0,0,2-.84,5.64,5.64,0,0,0,2.06-2.88,4,4,0,0,0-.88-4,5.6,5.6,0,0,0-1-.85Z"/><path d="M222.66,269.1l-8.24-2.21a1.5,1.5,0,0,1-1.06-1.84,1.44,1.44,0,0,1,.44-.73l.81-.86.49-.52.12-7.48.12-7.64-.69-1.13-.9-1.51a1.5,1.5,0,0,1,.52-2.05,1.54,1.54,0,0,1,1.18-.16h0c2.1.6,4.25,1.21,6.51,1.82s4.42,1.19,6.51,1.71a6.83,6.83,0,0,1,1.27.44l.07,0a7.46,7.46,0,0,1,1.1.63h0a9.62,9.62,0,0,1,1,.81,8.22,8.22,0,0,1,.91,1,7.42,7.42,0,0,1,.75,1.08,7.6,7.6,0,0,1,.57,1.19l0,.09a7.83,7.83,0,0,1,.34,1.21,6.58,6.58,0,0,1,.11,1.33l0,3.2a5.57,5.57,0,0,1-.16,1.19,5.07,5.07,0,0,1-.4,1.13h0a5.72,5.72,0,0,1-.62,1,6,6,0,0,1-.85.89,6.08,6.08,0,0,1-1,.69,5.76,5.76,0,0,1-1.18.45l-.08,0A4.88,4.88,0,0,1,229,263a5.91,5.91,0,0,1-1.37-.17l0,0h0c-1.65-.39-3.29-.79-4.88-1.19l0,2.7,1.62,2.49a1.49,1.49,0,0,1-1.64,2.26Zm-5-4.46,2.11.57a1.4,1.4,0,0,1-.06-.45l.08-5.07h0a1.64,1.64,0,0,1,.05-.37,1.5,1.5,0,0,1,1.84-1.06c2.3.62,4.48,1.14,6.66,1.67h0a3.77,3.77,0,0,0,.72.1,2.16,2.16,0,0,0,.51-.06h.05a2.51,2.51,0,0,0,.56-.22,2.72,2.72,0,0,0,.47-.31A3,3,0,0,0,231,259a3.11,3.11,0,0,0,.3-.51h0a2.44,2.44,0,0,0,.2-.55,2.35,2.35,0,0,0,.06-.54l.05-3.21a3.08,3.08,0,0,0-.06-.75,4,4,0,0,0-.18-.68l0-.07A5,5,0,0,0,231,252a4.35,4.35,0,0,0-.47-.68,4.52,4.52,0,0,0-.6-.63,5.3,5.3,0,0,0-.71-.55h0a3.72,3.72,0,0,0-.67-.38l-.06,0a3.91,3.91,0,0,0-.75-.26c-2.28-.57-4.46-1.14-6.57-1.72l-2.92-.81a1.5,1.5,0,0,1,.09.56l-.12,8.06-.13,8.07h0a1.58,1.58,0,0,1-.41,1l-.07.06Zm5.22-10.54c1.36.35,2.76.7,4.17,1l.16,0a.43.43,0,0,0,0-.07.93.93,0,0,0,0-.28,1.4,1.4,0,0,0-.06-.43h0A1.28,1.28,0,0,0,227,254a1,1,0,0,0-.25-.25,1.84,1.84,0,0,0-.39-.16c-.82-.2-1.7-.43-2.68-.69l-.82-.22,0,1.42Zm3.46,4c-1.71-.41-3.43-.84-5.24-1.33a1.5,1.5,0,0,1-1.24-1.5l.07-4.52h0a1.32,1.32,0,0,1,.06-.39,1.49,1.49,0,0,1,1.85-1l2.64.72,2.65.68a4.17,4.17,0,0,1,1.31.58,3.88,3.88,0,0,1,1,1,4.28,4.28,0,0,1,.61,1.23h0a4.18,4.18,0,0,1,.19,1.36,3.48,3.48,0,0,1-.26,1.34,3.13,3.13,0,0,1-.78,1.16,2.78,2.78,0,0,1-1.31.72l-.09,0a3.39,3.39,0,0,1-1.51-.06Zm30.08,17.37-.21,0c-3-.4-6-.81-9.19-1.29a1.5,1.5,0,0,1-.82-2.56h0l1.21-1.18.09-.07.07-.07-.46-1.86-3.92-.66-.41,1.35c.29.39.45.6.52.68s.33.43,1,1.29a1.5,1.5,0,0,1-.27,2.1,1.53,1.53,0,0,1-1.26.28c-3.15-.55-6.23-1.18-9.31-1.8h0a1.51,1.51,0,0,1-1.15-1.79,1.47,1.47,0,0,1,.61-.91l2-1.53c.48-1.54.73-2.35,1-3.13.5-1.59,1-3.2,1.24-3.95.56-1.82,1-3.2,1.43-4.58.26-.82.52-1.65.77-2.48l-.36-.82-.58-1.35a1.5,1.5,0,0,1,.79-2,1.48,1.48,0,0,1,.85-.1h0c1.82.32,3.71.65,5.71,1s3.94.63,5.71.88a1.49,1.49,0,0,1,1.27,1.69,1.46,1.46,0,0,1-.17.51h0v0l-.95,1.73,1,3.79c.29,1.13.58,2.26,1,4,.67,2.67,1.09,4.3,1.51,5.94l.52,2c.81.92,1.26,1.42,1.67,1.87l.92-1.08.12-7.49.11-7.56-.63-.94-.88-1.33a1.5,1.5,0,0,1,.41-2.08,1.46,1.46,0,0,1,1-.24h0q3.5.34,6.77.59c2.3.17,4.55.31,6.77.42a6.91,6.91,0,0,1,1.3.19,6.14,6.14,0,0,1,1.25.43,7.27,7.27,0,0,1,1.12.65l.08.08a7.07,7.07,0,0,1,.87.76,6.57,6.57,0,0,1,.79,1,6.64,6.64,0,0,1,.61,1.15h0a6.17,6.17,0,0,1,.37,1.27,7.27,7.27,0,0,1,.1,1.32l0,3.23a6,6,0,0,1-.11,1.1,6.23,6.23,0,0,1-.3,1.09,7.66,7.66,0,0,1-.45,1,.41.41,0,0,1-.05.09,6.7,6.7,0,0,1-.53.78,5.77,5.77,0,0,1-.72.77h0a7,7,0,0,1-.85.65l-.18.12.67,1.17,0,.08.06.1,1.38,2.42,1,1.06.76.77.48-.61.63-.78.12-7.61.12-7.6-.62-.82-.95-1.27a1.5,1.5,0,0,1,.33-2.09,1.53,1.53,0,0,1,.89-.29h0c1.46,0,2.94,0,4.45,0s2.94-.07,4.47-.12a1.5,1.5,0,0,1,1.55,1.44,1.55,1.55,0,0,1-.33,1h0l-.54.67-1.2,1.49-.1,6.5-.08,5.44.86,0,2.12-.09,1.37-.7,1.65-.85a1.5,1.5,0,0,1,1.52.08l.05-3.35.08-5.38a6.72,6.72,0,0,1,.16-1.34,7,7,0,0,1,.41-1.3h0a7.94,7.94,0,0,1,.61-1.16l.08-.11a8.63,8.63,0,0,1,.72-.92,8.22,8.22,0,0,1,1-.87,8.61,8.61,0,0,1,1.08-.69h0a7.1,7.1,0,0,1,1.25-.53,6.81,6.81,0,0,1,1.33-.27l.3,0c2.18-.24,4.36-.49,6.58-.81a6.47,6.47,0,0,1,1.31,0A5.27,5.27,0,0,1,312,251a5.84,5.84,0,0,1,1.18.48,5.22,5.22,0,0,1,1,.72,5.34,5.34,0,0,1,.84.94l0,0a6.13,6.13,0,0,1,.57,1,6.72,6.72,0,0,1,.39,1.25h0a6.83,6.83,0,0,1,.11,1.35l-.08,5.38-.08,5.38a6.9,6.9,0,0,1-.16,1.34,7.61,7.61,0,0,1-.4,1.31,7.19,7.19,0,0,1-.6,1.17l-.06.09a6.6,6.6,0,0,1-.72,1,8.09,8.09,0,0,1-.93.92,8.53,8.53,0,0,1-1.09.77l-.07,0a7.12,7.12,0,0,1-1.16.54,6.6,6.6,0,0,1-1.33.31l-1.45.18h0c-1.89.24-3.77.48-5.5.66a6.09,6.09,0,0,1-1.35,0,5.76,5.76,0,0,1-1.32-.3,6.44,6.44,0,0,1-1.16-.53,5.63,5.63,0,0,1-1-.75,6.14,6.14,0,0,1-.83-1,6.86,6.86,0,0,1-.47-.79l0,2.47a1.5,1.5,0,0,1-1.53,1.48h0c-2.44.12-5,.21-7.49.27s-5,.1-7.58.11a1.6,1.6,0,0,1-.72-.18,1.48,1.48,0,0,1-.75.14q-2.37-.06-4.68-.15c-1.61-.06-3.2-.14-4.74-.24a1.46,1.46,0,0,1-1.13-.62,1.29,1.29,0,0,1-.17.16,1.5,1.5,0,0,1-1,.32h0c-2.94-.23-5.71-.5-8.48-.77l-.38,0a1.7,1.7,0,0,0-1.25-.14Zm-6-3.84,2.43.34a1.42,1.42,0,0,1-.1-.29l-.61-2.36c-.59-2.32-1.2-4.66-1.52-5.95-.23-.93-.62-2.45-1-4-.29-1.13-.56-2.19-1.1-4.36h0a1.52,1.52,0,0,1,.13-1.06l.22-.41-3.63-.57-3-.51,0,.11h0a1.41,1.41,0,0,1,.06,1.05c-.31,1-.62,2-.94,3-.53,1.67-1,3.35-1.43,4.57-.58,1.89-.91,2.92-1.24,4l-1.12,3.57h0a1.46,1.46,0,0,1-.35.6l2.42.48a1.47,1.47,0,0,1,0-.88l1-3.34h0a1.51,1.51,0,0,1,1.69-1l6.17,1h0a1.5,1.5,0,0,1,1.22,1.12l.2.8c.23.95.47,1.91.7,2.86h0a1.49,1.49,0,0,1-.24,1.24Zm-2.18-10.81.29,1.08a1.55,1.55,0,0,1,0,.61,1.5,1.5,0,0,1-1.71,1.25c-.94-.14-2.07-.34-3.2-.53l-.37-.07a1,1,0,0,1-.23-.05,1.5,1.5,0,0,1-1-1.87l.35-1.15.58-1.87.91-2.93a1.5,1.5,0,0,1,2.91,0l.48,1.86h0c.27,1.06.21.8.38,1.47s.39,1.51.58,2.22Zm12.56,12.08,2.56.24a1.53,1.53,0,0,1-.18-.74l.08-5h0v-.09a1.5,1.5,0,0,1,1.6-1.39l1.95.14.55,0a1.46,1.46,0,0,1,1.26.76l1.5,2.61,1.45,2.52a1.51,1.51,0,0,1,0,1.61l-.09.14,2.18.1,1,0v0l-1.49-2.59a.61.61,0,0,0-.07-.1l0-.09-1.5-2.62h0a2,2,0,0,1-.15-.37,1.5,1.5,0,0,1,1.08-1.82,2.42,2.42,0,0,0,.53-.19,3.05,3.05,0,0,0,.51-.27,3.55,3.55,0,0,0,.45-.36h0a3.76,3.76,0,0,0,.38-.41c.1-.14.2-.28.29-.43l0-.06a5,5,0,0,0,.27-.57,2.64,2.64,0,0,0,.15-.55,3.72,3.72,0,0,0,.06-.62l0-3.23a4.35,4.35,0,0,0-.06-.74,3.5,3.5,0,0,0-.2-.68h0a3.13,3.13,0,0,0-.33-.63,4.6,4.6,0,0,0-.46-.57,3.89,3.89,0,0,0-.48-.43l-.07-.05a4.23,4.23,0,0,0-.62-.37,3.8,3.8,0,0,0-.67-.23,4.52,4.52,0,0,0-.75-.11q-3.5-.17-6.85-.42l-3.69-.29a1.52,1.52,0,0,1,.28.89l-.13,8-.12,8h0a1.48,1.48,0,0,1-.34.93ZM275.54,254a1.46,1.46,0,0,1,.53,1.08l-.53-1.08ZM267.8,274l.54-.87.23-.39-1.06-1.84L266.42,269h-.19l-.05,2.93c.23.3.45.58.64.84l1,1.23,0,0Zm3-13.06a.93.93,0,0,0,0-.31.69.69,0,0,0-.15-.24.4.4,0,0,0-.15-.12l-.05,0a.53.53,0,0,0-.23,0c-1.34-.08-2.59-.18-3.83-.28l0,1.51c1.34.1,2.67.18,3.94.25a.33.33,0,0,0,.18,0,.31.31,0,0,0,.13-.1.8.8,0,0,0,.16-.26,1,1,0,0,0,.06-.37Zm2.78-1.33a3.69,3.69,0,0,1,.23,1.37,4.1,4.1,0,0,1-.27,1.4,3.75,3.75,0,0,1-.74,1.2,3.36,3.36,0,0,1-1.2.87,3.49,3.49,0,0,1-1.49.23c-1.84-.09-3.58-.22-5.3-.34h0a1.5,1.5,0,0,1-1.48-1.52l.07-4.49v-.05h0s0-.06,0-.09a1.5,1.5,0,0,1,1.61-1.38l.89.07c1.53.13,3.05.25,4.46.33a3.87,3.87,0,0,1,1.25.28l.12.05a3.28,3.28,0,0,1,1.16.87,3.85,3.85,0,0,1,.71,1.2Zm15.6,12.63-2.34.07h-.19a1.5,1.5,0,0,1-1.47-1.53l.11-7,.11-7h0a1.5,1.5,0,0,1,.33-.91l0,0-1.27,0-1.52,0,0,0a1.52,1.52,0,0,1,.35,1l-.12,8.11-.13,8.11h0a1.47,1.47,0,0,1-.26.82l4.38-.08q3-.07,6.11-.21l0-1.67v-.58l-1.05.54a1.53,1.53,0,0,1-.65.18l-2.47.11Zm9.61-7.86-.09,5.37a4.33,4.33,0,0,0,0,.76,3.06,3.06,0,0,0,.2.63,4,4,0,0,0,.32.57,2.67,2.67,0,0,0,.4.47,2.78,2.78,0,0,0,.51.37,2.88,2.88,0,0,0,.59.27,3.44,3.44,0,0,0,.69.16,4.08,4.08,0,0,0,.7,0c1.91-.21,3.67-.43,5.44-.65h0l1.46-.19a3.1,3.1,0,0,0,.7-.17,3.79,3.79,0,0,0,.65-.29l.05,0a4.38,4.38,0,0,0,.68-.49,4.61,4.61,0,0,0,.59-.58,5.37,5.37,0,0,0,.46-.6l0-.08a5.16,5.16,0,0,0,.62-1.51,3.89,3.89,0,0,0,.08-.78l.08-5.38.09-5.37a4.1,4.1,0,0,0-.06-.74h0a2.89,2.89,0,0,0-.46-1.12l0-.05a3.22,3.22,0,0,0-.39-.43,2.21,2.21,0,0,0-.47-.33,2.62,2.62,0,0,0-.56-.23,3.47,3.47,0,0,0-.62-.1,2.92,2.92,0,0,0-.72,0c-2.21.32-4.45.57-6.68.82l-.3,0a4.66,4.66,0,0,0-.77.17,4.3,4.3,0,0,0-.74.31h0a5.52,5.52,0,0,0-.7.44,3.94,3.94,0,0,0-.57.52,4.93,4.93,0,0,0-.43.52.41.41,0,0,1-.05.09,5.41,5.41,0,0,0-.38.71h0a3.9,3.9,0,0,0-.23.73,3.81,3.81,0,0,0-.08.78l-.08,5.38Zm9.48,2.23,0-3.65.06-3.65a.69.69,0,0,0,0-.28.27.27,0,0,0-.09-.12.4.4,0,0,0-.17-.09h-.36l-2.06.24-1,.12h0l-.19,0a.88.88,0,0,0-.2.09.72.72,0,0,0-.18.1h0l-.18.17a1.07,1.07,0,0,0-.24.36l0,0a.75.75,0,0,0-.05.16h0a.88.88,0,0,0,0,.16l-.06,3.65-.05,3.64a.39.39,0,0,0,0,.16h0a.5.5,0,0,0,0,.13.16.16,0,0,0,0,.07h0l0,.06.11.07.05,0,.15,0a.77.77,0,0,0,.21,0l2.83-.34.25,0a1.47,1.47,0,0,0,.42-.13l.05,0a1.26,1.26,0,0,0,.32-.26,1,1,0,0,0,.23-.34,1.12,1.12,0,0,0,.08-.39Zm3.06-3.6-.06,3.65a4.11,4.11,0,0,1-.3,1.48,4.16,4.16,0,0,1-.83,1.27,4.61,4.61,0,0,1-1.09.84l-.09,0a4,4,0,0,1-1.43.43l-.25,0-2.84.35a3.47,3.47,0,0,1-.72,0A3.67,3.67,0,0,1,303,271a3.45,3.45,0,0,1-.74-.29,4.78,4.78,0,0,1-.59-.41,3.42,3.42,0,0,1-.53-.55h0a3.59,3.59,0,0,1-.39-.66,3.86,3.86,0,0,1-.24-.75h0a4.11,4.11,0,0,1-.07-.78l.06-3.65.05-3.64a4.27,4.27,0,0,1,.1-.8h0a3.31,3.31,0,0,1,.19-.61.25.25,0,0,1,0-.09,4.71,4.71,0,0,1,.35-.67,5.06,5.06,0,0,1,.47-.59,6,6,0,0,1,.53-.48h0a4.5,4.5,0,0,1,.63-.41,4.7,4.7,0,0,1,.7-.29,4.1,4.1,0,0,1,.73-.15h0l1.05-.12,2-.23a3.8,3.8,0,0,1,1.39.06l.08,0a3.36,3.36,0,0,1,1.35.7,3.41,3.41,0,0,1,.93,1.24,3.89,3.89,0,0,1,.28,1.5l-.06,3.65Zm14.9,9c-3.07.7-6,1.28-8.84,1.86a1.49,1.49,0,0,1-1.76-1.18,1.48,1.48,0,0,1,.29-1.21l.86-1.29.68-1,.12-7.72.12-7.62-.53-.65h0l-.88-1.08a1.49,1.49,0,0,1,.2-2.11,1.62,1.62,0,0,1,.75-.33c2.17-.4,4.39-.85,6.66-1.33s4.55-1,6.88-1.55a8.35,8.35,0,0,1,1.27-.2,5.73,5.73,0,0,1,1.31.06,5.37,5.37,0,0,1,1.21.35,4.93,4.93,0,0,1,1.07.61,5.12,5.12,0,0,1,.89.85h0a5.51,5.51,0,0,1,.66,1.05,5.14,5.14,0,0,1,.4,1.24,5.69,5.69,0,0,1,.12,1.32l-.05,3.23a7.35,7.35,0,0,1-.12,1.13,6.38,6.38,0,0,1-.29,1.1,7,7,0,0,1-.42,1,9,9,0,0,1-.53,1,9.93,9.93,0,0,1-.67.93c-.24.28-.5.56-.78.83s-.29.27-.44.39l.7,1,.78,1.1.06.1.56.79,1,.68,1.17.81a1.51,1.51,0,0,1,.39,2.08,1.47,1.47,0,0,1-.84.6h0c-3.16.89-6.31,1.79-9.53,2.58a1.45,1.45,0,0,1-1.31-.3,1.37,1.37,0,0,1-.3.45,1.45,1.45,0,0,1-.81.44Zm-5.89-1.8,2.6-.54a1.49,1.49,0,0,1-.42-1.08l.08-5.09h0a1.51,1.51,0,0,1,1.16-1.44l1.28-.3,1.3-.31h0a1.49,1.49,0,0,1,1.58.61c.59.87,1.07,1.56,1.5,2.16l1.48,2.11a1.53,1.53,0,0,1,.24,1.34c1.07-.28,2.14-.58,3.22-.88-.05-.06-.11-.12-.16-.19l-.7-1-.08-.09-.77-1.11-.78-1.11h0l-.77-1.1h0L331,262a1.5,1.5,0,0,1,.56-2,6,6,0,0,0,.6-.39,7.38,7.38,0,0,0,.59-.5c.19-.19.37-.38.54-.58a5.24,5.24,0,0,0,.44-.61,5.47,5.47,0,0,0,.37-.66,5.38,5.38,0,0,0,.28-.7,4,4,0,0,0,.18-.68,3.24,3.24,0,0,0,.06-.64l0-3.23a3,3,0,0,0,0-.69,2.36,2.36,0,0,0-.17-.53,2.46,2.46,0,0,0-.28-.45h0a2.9,2.9,0,0,0-.36-.34,2.42,2.42,0,0,0-.42-.24,3.33,3.33,0,0,0-.55-.15,2.52,2.52,0,0,0-.62,0,4.74,4.74,0,0,0-.79.12q-3.41.81-6.93,1.56c-1.42.3-2.87.6-4.33.89l.08.09a1.49,1.49,0,0,1,.44,1.09l-.12,8.17-.13,8.16h0a1.49,1.49,0,0,1-.11.54Zm6.58-.83a1,1,0,0,1,0-.1h0l1-1.87,0,0-1-1.43-.93-1.33-.3.07-.15,0-.05,3.29.51.51.88.86Zm3.29-14.59a1,1,0,0,0,0-.2l-.2,0-4.12.91h0l-.14,0,0,1.47.84-.19h0l2.71-.64a.82.82,0,0,0,.33-.14,1.22,1.22,0,0,0,.3-.3,2.07,2.07,0,0,0,.25-.49,1.86,1.86,0,0,0,.08-.49Zm2.76-1.32a3.38,3.38,0,0,1,.24,1.37,4.83,4.83,0,0,1-.24,1.39,4.77,4.77,0,0,1-.64,1.25,4.15,4.15,0,0,1-1,1.05,3.89,3.89,0,0,1-1.35.6l-2.72.64h0l-2.59.6a1.5,1.5,0,0,1-1.95-1.46l.07-4.53v-.05h0a1.5,1.5,0,0,1,1.18-1.44l1.31-.29h0l4.11-.91a3.48,3.48,0,0,1,1.43,0,2.82,2.82,0,0,1,1.24.54l1,1.28Zm-.84-1.18a3,3,0,0,1,.84,1.18l-.84-1.18Z"/><path class="cls-7" d="M222.49,267.12l-8.24-2.22L216,263c0-2.69.09-5.38.13-8.07s.08-5.37.13-8.06c-.62-1-1.22-2-1.82-3,4.35,1.24,8.71,2.45,13.07,3.54a6.14,6.14,0,0,1,2,.89,7.62,7.62,0,0,1,1.63,1.47,6.85,6.85,0,0,1,1.08,1.87,5.44,5.44,0,0,1,.37,2.06c0,1.07,0,2.14,0,3.21a4.21,4.21,0,0,1-.41,1.71,4.1,4.1,0,0,1-1.08,1.42,4.05,4.05,0,0,1-1.61.83,3.92,3.92,0,0,1-2,0c-2.26-.54-4.5-1.08-6.75-1.68,0,1.69-.05,3.38-.07,5.07l1.87,2.87Zm-1.72-12.42c1.77.49,3.55.93,5.33,1.36a1.53,1.53,0,0,0,1.52-.31,2,2,0,0,0,.58-1.44,2.82,2.82,0,0,0-.53-1.71,2.51,2.51,0,0,0-1.5-1c-1.78-.45-3.56-.91-5.33-1.42,0,1.51-.05,3-.07,4.52ZM256,273.4c-3.14-.42-6.26-.83-9.38-1.3l2-1.94q-.45-1.82-.9-3.66c-2.06-.33-4.13-.68-6.19-1l-1,3.34c.65.87,1.31,1.73,2,2.59-3.13-.54-6.25-1.18-9.37-1.81l2.46-1.86c.77-2.51,1.58-5,2.35-7.54s1.59-5,2.38-7.58q-.6-1.34-1.17-2.67c3.82.68,7.64,1.32,11.47,1.87-.42.76-.83,1.52-1.24,2.28.7,2.78,1.42,5.56,2.11,8.33s1.42,5.54,2.12,8.31L256,273.4Zm-9.51-11.71c-.29-1.1-.59-2.21-.87-3.31s-.57-2.22-.85-3.33l-.93,3-.93,3c1.19.21,2.38.42,3.58.6Zm19.54,12.65c-2.95-.23-5.89-.52-8.83-.81.62-.72,1.23-1.45,1.86-2.17l.12-8c.05-2.68.09-5.35.13-8-.6-.88-1.19-1.77-1.78-2.66q6.81.68,13.61,1a5.24,5.24,0,0,1,2,.48,5.37,5.37,0,0,1,1.62,1.17,5.07,5.07,0,0,1,1.09,1.68,5,5,0,0,1,.37,2l-.06,3.23a5,5,0,0,1-.3,1.68,5.73,5.73,0,0,1-.82,1.45,5.06,5.06,0,0,1-2.68,1.76l1.54,2.7,1.55,2.69c.77.8,1.55,1.59,2.34,2.38-3.15-.08-6.3-.19-9.44-.39.47-.75.94-1.51,1.4-2.28q-1.5-2.59-3-5.22l-2.57-.17c0,1.68-.06,3.35-.08,5,.64.84,1.28,1.67,1.93,2.5Zm5.72-13.94a2.18,2.18,0,0,0-.57-1.56,2,2,0,0,0-1.47-.69c-1.8-.11-3.6-.26-5.39-.41v.05c0,1.5,0,3-.07,4.48,1.79.13,3.59.26,5.38.35a1.76,1.76,0,0,0,1.5-.61,2.36,2.36,0,0,0,.62-1.61Zm14.37,9.85c1.63,0,3.27-.11,4.91-.19,1.1-.55,2.21-1.13,3.31-1.7,0,1,0,2.06-.05,3.09s0,2.05-.05,3.08q-7.56.36-15.1.38l1.9-2.37q.06-4.05.13-8.11l.12-8.11c-.62-.82-1.25-1.65-1.86-2.49,3,0,6-.05,9-.16l-2.06,2.57c0,2.33-.07,4.67-.11,7s-.07,4.67-.11,7Zm10.52-1.09.09-5.37c0-1.79.05-3.59.08-5.38a5.46,5.46,0,0,1,.44-2.08,5.88,5.88,0,0,1,1.14-1.75,6.17,6.17,0,0,1,1.67-1.26,5.46,5.46,0,0,1,2-.64c2.3-.26,4.61-.51,6.93-.85a4.62,4.62,0,0,1,2,.12,4.11,4.11,0,0,1,2.68,2.38,4.76,4.76,0,0,1,.38,2l-.09,5.38c0,1.79-.05,3.59-.08,5.38a5.8,5.8,0,0,1-.44,2.1,6.66,6.66,0,0,1-1.13,1.83,6.4,6.4,0,0,1-1.64,1.37,5.17,5.17,0,0,1-2,.7c-2.32.28-4.63.59-6.94.83a4.69,4.69,0,0,1-2-.22,4.58,4.58,0,0,1-1.64-1,4.46,4.46,0,0,1-1.08-1.54,4.9,4.9,0,0,1-.38-2Zm12.57-3.09.06-3.65.06-3.65a1.91,1.91,0,0,0-.67-1.57,2.07,2.07,0,0,0-1.68-.44l-3.08.36a2.58,2.58,0,0,0-.92.28,3,3,0,0,0-.76.58,2.91,2.91,0,0,0-.53.81,2.74,2.74,0,0,0-.21.94l-.06,3.64c0,1.21,0,2.43-.05,3.64a2.1,2.1,0,0,0,.18.92,1.91,1.91,0,0,0,.51.68,1.89,1.89,0,0,0,.74.39,2.31,2.31,0,0,0,.91.06l3.09-.38a2.75,2.75,0,0,0,1.7-.87,2.52,2.52,0,0,0,.71-1.74ZM325.42,270c-2.95.67-5.9,1.27-8.85,1.86l1.85-2.75q.06-4.08.13-8.16t.13-8.17c-.6-.71-1.19-1.43-1.78-2.16,4.56-.85,9.12-1.83,13.68-2.9a4.88,4.88,0,0,1,2-.12,3.6,3.6,0,0,1,1.63.67,3.72,3.72,0,0,1,1.09,1.35,4.23,4.23,0,0,1,.37,1.89c0,1.08,0,2.16-.05,3.23a5.92,5.92,0,0,1-.32,1.78,8.34,8.34,0,0,1-.8,1.68,8.08,8.08,0,0,1-1.22,1.47,7.34,7.34,0,0,1-1.48,1.11c.51.75,1,1.48,1.55,2.22l1.55,2.22c.78.55,1.56,1.1,2.35,1.64-3.16.9-6.33,1.79-9.48,2.57l1.41-2.71c-1-1.44-2-2.88-3-4.34l-2.59.61c0,1.7-.05,3.4-.08,5.09.65.65,1.29,1.29,1.94,1.92Zm5.75-15.72a1.7,1.7,0,0,0-.55-1.39,1.66,1.66,0,0,0-1.49-.27l-5.42,1.2v0c0,1.51,0,3-.07,4.53l5.42-1.26a2.52,2.52,0,0,0,1.51-1,3.19,3.19,0,0,0,.6-1.81Z"/><path class="cls-6" d="M318.54,270.5c1.71-.35,3.41-.7,5.07-1.07l-.77-.77-.26-.27V268l.08-5.1v-.7l.69-.16,1.29-.3,1.29-.31.6-.14.35.51c.54.8,1,1.5,1.5,2.17l1.52,2.16.31.45-.25.48-.44.85,0,.09c1.88-.5,3.78-1,5.68-1.56l-.8-.56-.12-.09-.09-.13-.78-1.1h0l-.78-1.11-.77-1.11h0l-.78-1.11-.57-.81.86-.49a6.67,6.67,0,0,0,.66-.43c.23-.18.45-.36.65-.55s.4-.41.59-.63l0,0q-6.88,1.65-13.82,2.86l-.13,7.92v.26l-.15.23-.63.94Zm-5.46-8.33-2.89.41-.06,3.51a3.37,3.37,0,0,1-.25,1.26,3.55,3.55,0,0,1-.71,1.08,3.92,3.92,0,0,1-1,.77h0a3.59,3.59,0,0,1-1.23.37l-.25,0-2.83.35a3.24,3.24,0,0,1-.62,0,2.59,2.59,0,0,1-.62-.1,2.48,2.48,0,0,1-.61-.23,3.36,3.36,0,0,1-.49-.35,3.11,3.11,0,0,1-.44-.45h0a2.69,2.69,0,0,1-.31-.55,2.58,2.58,0,0,1-.2-.63h0a2.39,2.39,0,0,1-.06-.66l.05-3.33-2.89.24-.09,5.27a4.72,4.72,0,0,0,.07.87,4.15,4.15,0,0,0,.23.76,5,5,0,0,0,.38.68,3.33,3.33,0,0,0,.49.56,3.43,3.43,0,0,0,.61.45,4.09,4.09,0,0,0,.7.33,3.88,3.88,0,0,0,.82.18,3.84,3.84,0,0,0,.83,0c1.87-.2,3.66-.43,5.45-.65h0l1.47-.19a4.05,4.05,0,0,0,.82-.19,5,5,0,0,0,.81-.38h0a6.09,6.09,0,0,0,.76-.54,5.79,5.79,0,0,0,.66-.65,6.08,6.08,0,0,0,.56-.75h0a5.26,5.26,0,0,0,.42-.82,5.58,5.58,0,0,0,.27-.88,5.28,5.28,0,0,0,.1-.9l.07-4.88Zm-27.75,2.39-3.24.07-.13,7.92v.31l-.2.24-.71.9c1.87,0,3.75-.05,5.64-.1q3.3-.07,6.68-.23l0-2.24,0-1.58-.33.17-1.66.85-.17.09h-.19l-2.47.11-2.46.08-.93,0v-.94l.09-5.67Zm-10.84,0q-7.25-.15-14.39-.75l-.12,7.53v.33l-.21.25-.74.85c1.7.17,3.39.33,5.06.47-.25-.32-.48-.61-.68-.88l-.19-.25v-.31l.07-5,0-1,.95.07,1.95.13.62,0,.48,0,.24.42,1.49,2.61,1.5,2.6.27.47-.28.45-.61,1,3.19.15,2.48.09-.78-.79-.07-.08-.06-.1-1.55-2.7h0l-.05-.08-1.5-2.62-.58-1,1.14-.29a5.25,5.25,0,0,0,.63-.22,3.08,3.08,0,0,0,.59-.33,4.26,4.26,0,0,0,.54-.41h0a3.42,3.42,0,0,0,.44-.49l.15-.19Zm-23.8-1.74-3.05-.41.09.36-1.36-.22c-1-.15-2.09-.34-3.18-.53l-.42-.07-1-.17.09-.26-3.19-.56c-.43,1.39-.75,2.41-1.07,3.43-.45,1.41-.88,2.78-1.13,3.58l-.08.28-.23.17-.87.66c1.71.34,3.41.68,5.11,1l-.57-.75-.28-.36.14-.44,1-3.34.23-.76.78.13c2,.34,4,.68,6.18,1l.59.09.14.58.2.8c.24,1,.47,1.91.71,2.86l.12.5-.37.36-.69.66c1.69.25,3.41.48,5.14.72-.3-.34-.57-.64-.76-.87l-.14-.16-.06-.21-.6-2.36c-.54-2.08-1.08-4.17-1.47-5.74Zm-20.17-3.52q-6.84-1.54-13.46-3.5l-.12,7.19v.35l-.24.26-.76.79,4.51,1.22-.59-.9-.15-.23v-.28l.08-5.07,0-1.15,1.12.3c2.26.61,4.47,1.14,6.68,1.67h0a3.66,3.66,0,0,0,.84.11,2.92,2.92,0,0,0,.73-.09h0a3.15,3.15,0,0,0,1.26-.65l0,0Z"/><path class="cls-8" d="M245.28,260.59c-.18-.68-.36-1.36-.51-2l-.06-.23-.57,1.84,0,.17,1.19.21Z"/><path d="M184.4,206c.4-.62.74-1.14,1-1.59l.85-1.28.11-7,.09-5.71-.76.21-2,.56-1.33,1.16-.07.06-1.45,1.27a1.19,1.19,0,0,1-1.69-.11,1.14,1.14,0,0,1-.3-.81h0l.06-3.33,0-3.34a1.21,1.21,0,0,1,1-1.17q5.15-1.33,10.22-2.52,5.25-1.21,10.41-2.26a1.2,1.2,0,0,1,1.41,1,1.06,1.06,0,0,1,0,.25h0l-.05,3.15,0,3.14a1.2,1.2,0,0,1-1.22,1.19,1.29,1.29,0,0,1-.47-.11l-2.79-.94-1.89.42-1.3.31-.1,6.31-.1,6.7,1.32,1.13.26.22a1.19,1.19,0,0,1,.14,1.69,1.17,1.17,0,0,1-.6.38l-4.71,1.38c-1.62.48-3.2,1-4.7,1.44A1.2,1.2,0,0,1,184.4,206Zm4.09-1.83-.22.33,1.52-.45,2.61-.77-.28-.24a1.19,1.19,0,0,1-.47-1l.11-7.25.11-7.26h0a1.19,1.19,0,0,1,.92-1.15l2.22-.51,2.25-.51h0a1.28,1.28,0,0,1,.64,0l1.65.56,0-1.5,0-1.65c-3,.62-5.94,1.26-8.87,1.94q-4.71,1.1-9.36,2.29l0,2.43v.64l1-.89h0a1.19,1.19,0,0,1,.47-.25l2.29-.64,2.22-.61a1,1,0,0,1,.43-.07,1.2,1.2,0,0,1,1.18,1.22l-.12,7.31-.11,7.31h0a1.19,1.19,0,0,1-.21.65Zm38.24-4.4c-1.58.14-3.24.29-5,.47s-3.42.35-5,.54a1.2,1.2,0,0,1-1.32-1.06,1.22,1.22,0,0,1,.27-.91h0l1.07-1.26.65-.75c-.19-.64-.35-1.2-.5-1.74l-2.3.31-2.55.36c-.15.47-.25.81-.33,1.08l-.32,1.11,1.56,1.41a1.2,1.2,0,0,1,.1,1.69,1.24,1.24,0,0,1-.75.4c-1.66.27-3.31.56-4.95.86l-5,1a1.2,1.2,0,0,1-1.41-.95,1.25,1.25,0,0,1,.29-1h0l2.45-2.67,1.18-4,1.25-4.24c.49-1.63.89-3,1.27-4.22s.75-2.48,1.13-3.71l-.38-.68,0-.07-.59-1.07a1.2,1.2,0,0,1,.47-1.63,1.23,1.23,0,0,1,.41-.13h0c2.1-.31,4.15-.59,6.18-.84s4-.49,6.18-.73a1.2,1.2,0,0,1,1.32,1.06,1.13,1.13,0,0,1-.13.68h0l-1.12,2.15.49,1.65c.37,1.25.74,2.5,1.64,5.59.29,1,.68,2.32,1.14,3.86l1,3.5.26.21.06.06c.67.55,1.35,1.1,2,1.62a1.19,1.19,0,0,1,.14,1.69,1.22,1.22,0,0,1-.81.42Zm-5.24-1.92,2.13-.21-.25-.2a1.21,1.21,0,0,1-.45-.63l-1.15-3.87c-.3-1-.68-2.3-1.13-3.86L219,183.45l-.63-2.11h0a1.16,1.16,0,0,1,.08-.89l.3-.58c-1.25.14-2.55.3-3.91.47s-3,.38-4.41.59l.38.68a1.22,1.22,0,0,1,.14,1c-.43,1.39-.86,2.8-1.28,4.2-.47,1.56-.91,3-1.27,4.2-.59,2-1,3.4-1.25,4.23l-1.26,4.25h0a1.18,1.18,0,0,1-.27.47l-.14.15,0,.06,1.47-.28,2.61-.47-.19-.17a.46.46,0,0,1-.07-.07l0,0h0a1.18,1.18,0,0,1-.34-1.21l.53-1.83c.24-.82.45-1.5.55-1.84h0a1.17,1.17,0,0,1,1-.84l3.32-.47,3.31-.46a1.21,1.21,0,0,1,1.34.86l.18.61c.28,1,.56,2,.79,2.74h0a1.21,1.21,0,0,1-.25,1.13l-.16.18,2-.21Zm-6.61-9.52-.23-.74-.06-.2-.31,1,.6-.08Zm2.06-1.44.62,2a1.11,1.11,0,0,1,.07.26,1.2,1.2,0,0,1-1,1.34l-.74.1-3.06.41a1.2,1.2,0,0,1-1.35-1.52l.53-1.78.47-1.54c.23-.8.56-1.84.88-2.89l0-.06.11-.35h0a1.18,1.18,0,0,1,.8-.79,1.2,1.2,0,0,1,1.49.8l.9,3,0,0,.28.93Zm15.32,10.54,1-1.2.75-.85.11-6.49.09-5.67-2.27.09-.73,0L228.45,185a1.19,1.19,0,0,1-1.65-.39,1.28,1.28,0,0,1-.18-.65h0l0-3.07.05-3.08a1.2,1.2,0,0,1,1.21-1.18q10.24-.54,20.59-.49a1.2,1.2,0,0,1,.83.33,1.17,1.17,0,0,1,.8-.28h.13c3.43.14,6.84.33,10.21.58s6.83.55,10.31.92a1.2,1.2,0,0,1,1.08,1.21h0l-.05,3.2-.05,3.2a1.2,1.2,0,0,1-1.22,1.18,1.18,1.18,0,0,1-.73-.26L267,184.33l-2.81-.3-.1,5.89-.1,6.76.38.48,1.37,1.72a1.21,1.21,0,0,1-.2,1.69,1.23,1.23,0,0,1-1,.24c-1.42-.17-2.93-.34-4.6-.5s-3.18-.31-4.68-.42a1.21,1.21,0,0,1-1.11-1.29,1.18,1.18,0,0,1,.37-.78l1.71-1.84.11-6.61.09-6-1.13-.06-1.95-.1-.45.23-2.29,1.2a1.19,1.19,0,0,1-1.4-.19,1.2,1.2,0,0,1-.8.28,1.12,1.12,0,0,1-.63-.19l-1.54-.85-1.34-.73H242l-.09,5.84-.1,6.55.68.75,1,1.12a1.21,1.21,0,0,1-.09,1.7,1.15,1.15,0,0,1-.86.3l-4.65,0-4.69.07a1.2,1.2,0,0,1-.92-2Zm3.87-.79-.3.34,2,0,2.05,0-.18-.19a1.19,1.19,0,0,1-.35-.88l.11-7,.11-7h0a1.2,1.2,0,0,1,1.2-1.18h4.35a1.19,1.19,0,0,1,.63.14l1.48.8v-1.12l0-1.9q-9,0-18.19.44l0,2v.88l1.08-.67.05,0a1.2,1.2,0,0,1,.64-.22l1,0,3.44-.13h.16a1.2,1.2,0,0,1,1.18,1.22l-.11,6.94-.11,6.93h0a1.24,1.24,0,0,1-.31.78Zm22.16.69-.39.42,2.26.21,1.86.2-.16-.2a1.19,1.19,0,0,1-.32-.84l.11-7.18.11-7.19h0v-.08a1.18,1.18,0,0,1,1.29-1.09c1.35.11,2.85.28,4.36.44a1.2,1.2,0,0,1,.62.2l1.37.91,0-1,0-2.1q-4.51-.47-9.14-.8t-9-.53l0,1.89v1.09l.52-.27.73-.38h0a1.13,1.13,0,0,1,.6-.14l2.29.11,2.23.14h0a1.2,1.2,0,0,1,1.18,1.22l-.11,7.09-.11,7.07h0a1.17,1.17,0,0,1-.33.8Zm14.15-1.72.09-5.47.09-5.47a6.26,6.26,0,0,1,.15-1.31l0-.05a5.24,5.24,0,0,1,.41-1.17,5.16,5.16,0,0,1,.66-1.05,5.7,5.7,0,0,1,1.92-1.56h0A7.19,7.19,0,0,1,277,179a6.27,6.27,0,0,1,1.32-.2,6.71,6.71,0,0,1,1.33.07c2.2.34,4.37.73,6.55,1.12l.85.16a7.14,7.14,0,0,1,1.3.36,6.4,6.4,0,0,1,1.2.6h0a9.12,9.12,0,0,1,1.07.81,7.34,7.34,0,0,1,.94,1,8.58,8.58,0,0,1,.76,1.1,8,8,0,0,1,.58,1.22,7.37,7.37,0,0,1,.47,2.66l-.09,5.59-.09,5.59a5.66,5.66,0,0,1-.16,1.31,5,5,0,0,1-.43,1.22,5.25,5.25,0,0,1-.66,1,5.46,5.46,0,0,1-.89.84h0a4.86,4.86,0,0,1-1.06.61,5.68,5.68,0,0,1-1.17.36,5,5,0,0,1-1.29.1,7,7,0,0,1-1.28-.16l-5.83-1.14-1.52-.29a7.17,7.17,0,0,1-1.32-.38,8.1,8.1,0,0,1-1.22-.6,8.77,8.77,0,0,1-1.07-.73,8,8,0,0,1-.95-.9,7.59,7.59,0,0,1-.79-1.05,6.65,6.65,0,0,1-.59-1.16,6.74,6.74,0,0,1-.37-1.28,7.53,7.53,0,0,1-.12-1.32Zm2.5-5.43-.09,5.47a3.85,3.85,0,0,0,.07.85,4.45,4.45,0,0,0,.24.82,5.14,5.14,0,0,0,.93,1.5,5.78,5.78,0,0,0,.67.63,7.81,7.81,0,0,0,.79.54,5.83,5.83,0,0,0,.87.42,5.47,5.47,0,0,0,.9.26l1.52.29c1.88.36,3.76.72,5.86,1.15a4,4,0,0,0,.87.11,3.21,3.21,0,0,0,.76,0,3.59,3.59,0,0,0,.68-.21,3,3,0,0,0,.58-.33h0a3.11,3.11,0,0,0,.45-.44,2.87,2.87,0,0,0,.37-.58,2.56,2.56,0,0,0,.24-.69,4.09,4.09,0,0,0,.1-.82l.08-5.59.09-5.59a4.4,4.4,0,0,0-.07-.89,4.69,4.69,0,0,0-.24-.89,5.26,5.26,0,0,0-.41-.86,5,5,0,0,0-.54-.79,5.74,5.74,0,0,0-.68-.71,4.5,4.5,0,0,0-.73-.55h0a4.36,4.36,0,0,0-.81-.4,4.22,4.22,0,0,0-.86-.24l-.86-.16c-2.16-.39-4.32-.78-6.47-1.11a4.29,4.29,0,0,0-.87,0,4.51,4.51,0,0,0-.82.12,4,4,0,0,0-.71.27h0a3.56,3.56,0,0,0-.61.4,3,3,0,0,0-.5.5,3.7,3.7,0,0,0-.38.61,3.81,3.81,0,0,0-.24.67v0a4.76,4.76,0,0,0-.09.8l-.08,5.48Zm10.86,6,.06-3.76.05-3.77a1.33,1.33,0,0,0-.08-.54,1.7,1.7,0,0,0-.32-.52,2.19,2.19,0,0,0-.51-.42,1.82,1.82,0,0,0-.58-.21l-1.48-.27-1.8-.33h0a1,1,0,0,0-.24,0l-.21,0h0l-.21.07,0,0-.12.07h0a.69.69,0,0,0-.13.11l0,0-.08.13h0a.64.64,0,0,0-.06.16h0a1.52,1.52,0,0,0,0,.23l-.06,3.72-.06,3.73a1.14,1.14,0,0,0,0,.27,1.19,1.19,0,0,0,.07.23,1.74,1.74,0,0,0,.14.27l.17.23a2.61,2.61,0,0,0,.24.22h0a1.78,1.78,0,0,0,.27.17,1.17,1.17,0,0,0,.28.13,1.59,1.59,0,0,0,.33.09l1.88.36,1.39.26a1.39,1.39,0,0,0,.53,0h0a.81.81,0,0,0,.37-.15.46.46,0,0,0,.16-.18.94.94,0,0,0,.08-.38Zm2.46-3.73-.06,3.77a3.25,3.25,0,0,1-.32,1.41,2.84,2.84,0,0,1-1,1.1,3.35,3.35,0,0,1-1.28.53h0a3.94,3.94,0,0,1-1.41,0l-1.39-.26L281,198.6a4.39,4.39,0,0,1-.69-.18,4.3,4.3,0,0,1-.65-.3,3.27,3.27,0,0,1-.58-.39h0a5.61,5.61,0,0,1-.51-.48,4.19,4.19,0,0,1-.43-.56,3.78,3.78,0,0,1-.33-.63,3.53,3.53,0,0,1-.22-.72,3.92,3.92,0,0,1-.06-.75l0-3.72.06-3.73a4.29,4.29,0,0,1,.09-.73h0a3.23,3.23,0,0,1,.25-.7h0a3,3,0,0,1,.36-.56l0,0a3,3,0,0,1,.51-.49h0a3.24,3.24,0,0,1,.52-.33l.08,0a3.72,3.72,0,0,1,.64-.22h0a3.48,3.48,0,0,1,.74-.1,3.35,3.35,0,0,1,.7.05h.05l1.79.33,1.48.27a4.29,4.29,0,0,1,1.35.49,4.39,4.39,0,0,1,1.11.92,4.2,4.2,0,0,1,.76,1.25,3.88,3.88,0,0,1,.25,1.43l-.06,3.76Zm6.68,7.59.09-5.61.09-5.61a6.53,6.53,0,0,1,.15-1.33,5.81,5.81,0,0,1,.44-1.23,5.25,5.25,0,0,1,.68-1.05h0a4.83,4.83,0,0,1,.9-.85,4.93,4.93,0,0,1,1.07-.61l.07,0a5.34,5.34,0,0,1,1.14-.32,6.32,6.32,0,0,1,1.31-.08,7.89,7.89,0,0,1,1.35.21h0l3.67.95c1.3.34,2.55.69,3.71,1a8.12,8.12,0,0,1,1.28.51,9.14,9.14,0,0,1,1.17.71,9.46,9.46,0,0,1,1.06.9,9,9,0,0,1,.91,1,9.71,9.71,0,0,1,.74,1.15,8.34,8.34,0,0,1,.56,1.26,7,7,0,0,1,.37,1.34,8,8,0,0,1,.12,1.38l-.09,5.68-.09,5.68a7,7,0,0,1-.16,1.33,6.12,6.12,0,0,1-.45,1.22,5.1,5.1,0,0,1-.68,1,4.87,4.87,0,0,1-.89.81,4.66,4.66,0,0,1-1.08.57,5.86,5.86,0,0,1-1.2.3,6.16,6.16,0,0,1-1.29,0,6.92,6.92,0,0,1-1.3-.25h0c-1.17-.35-2.38-.71-3.66-1.07s-2.48-.69-3.64-1a8.38,8.38,0,0,1-1.32-.48,9,9,0,0,1-1.21-.69,9.82,9.82,0,0,1-1.07-.86,9.65,9.65,0,0,1-.92-1,8.26,8.26,0,0,1-.77-1.12,8.66,8.66,0,0,1-.58-1.23,7.24,7.24,0,0,1-.37-1.32,7,7,0,0,1-.11-1.36Zm2.49-5.57-.08,5.61a3.82,3.82,0,0,0,.07.9,4.32,4.32,0,0,0,.24.89,5.43,5.43,0,0,0,.42.88,5.66,5.66,0,0,0,.56.82,6.14,6.14,0,0,0,.69.75,8.47,8.47,0,0,0,.79.64,6.27,6.27,0,0,0,.86.49,5.85,5.85,0,0,0,.92.33c1.27.33,2.5.67,3.69,1s2.41.7,3.69,1.08h0a4.19,4.19,0,0,0,.83.16,3.85,3.85,0,0,0,.76,0,3.22,3.22,0,0,0,.68-.17,2.3,2.3,0,0,0,.54-.28,2.49,2.49,0,0,0,.45-.41,3.17,3.17,0,0,0,.36-.54,2.89,2.89,0,0,0,.25-.68,3.49,3.49,0,0,0,.09-.82l.09-5.68.09-5.68a4.69,4.69,0,0,0-.07-.92,6.47,6.47,0,0,0-.68-1.87,7.56,7.56,0,0,0-.55-.87,7,7,0,0,0-1.45-1.42,5.69,5.69,0,0,0-.85-.52,4.77,4.77,0,0,0-.87-.34c-1.29-.37-2.49-.7-3.65-1l-3.65-.94h0a4.41,4.41,0,0,0-.89-.14,3.35,3.35,0,0,0-.78,0,3.26,3.26,0,0,0-.65.18l-.05,0a2.34,2.34,0,0,0-.56.32,2.62,2.62,0,0,0-.49.45h0a3.15,3.15,0,0,0-.38.59,3.5,3.5,0,0,0-.24.69,5.15,5.15,0,0,0-.09.84l-.09,5.61Zm10.85,7.35.06-3.84.06-3.84a1.72,1.72,0,0,0-.1-.6h0a2.31,2.31,0,0,0-.35-.62,2.49,2.49,0,0,0-.56-.52,1.86,1.86,0,0,0-.6-.29l-1.62-.45-1.62-.42h0a1.17,1.17,0,0,0-.45,0,.74.74,0,0,0-.19.05.52.52,0,0,0-.13.06.26.26,0,0,0-.09.09.62.62,0,0,0-.09.12l-.06.16a1.18,1.18,0,0,0,0,.22l-.06,3.82-.06,3.82a1.45,1.45,0,0,0,0,.3,1.07,1.07,0,0,0,.07.27,2.1,2.1,0,0,0,.15.3,1.73,1.73,0,0,0,.19.28,3,3,0,0,0,.25.25l0,0a2.26,2.26,0,0,0,.26.2h0a2,2,0,0,0,.29.15h0l.32.12,1.66.44,1.65.48a1.52,1.52,0,0,0,.53.07h0a.62.62,0,0,0,.27-.09.35.35,0,0,0,.13-.14,1.07,1.07,0,0,0,.07-.38Zm2.46-3.8-.06,3.84a3.26,3.26,0,0,1-.33,1.42,2.72,2.72,0,0,1-1,1.1,3.18,3.18,0,0,1-1.31.44H308a3.72,3.72,0,0,1-1.41-.16l-1.62-.47c-.58-.16-1.12-.31-1.61-.43a6,6,0,0,1-.68-.24h0a3.77,3.77,0,0,1-.63-.34h0a4.77,4.77,0,0,1-.54-.41l0,0a6,6,0,0,1-.5-.51,5.46,5.46,0,0,1-.42-.6,4.73,4.73,0,0,1-.31-.64,3.51,3.51,0,0,1-.21-.73,3.8,3.8,0,0,1-.06-.75l.06-3.83.06-3.81a3.2,3.2,0,0,1,.09-.75,3.25,3.25,0,0,1,.26-.7,2.78,2.78,0,0,1,.4-.59,2.58,2.58,0,0,1,.55-.49A2.36,2.36,0,0,1,302,189a2.66,2.66,0,0,1,.67-.18,3.52,3.52,0,0,1,1.4.06h.05l1.64.43,1.67.46a4.21,4.21,0,0,1,1.32.62,4.85,4.85,0,0,1,1.06,1,4.4,4.4,0,0,1,.73,1.29h0a4,4,0,0,1,.24,1.44l-.06,3.84Z"/><path class="cls-7" d="M185.69,206.11c.69-1.05,1.39-2.1,2.1-3.14q0-3.66.11-7.31l.12-7.32-4.6,1.28-3.06,2.67.06-3.34c0-1.11,0-2.23.05-3.34q10.32-2.7,20.65-4.78c0,1,0,2.1-.05,3.14s0,2.1,0,3.15L197.81,186c-1.49.32-3,.67-4.45,1q0,3.62-.11,7.25c0,2.41-.08,4.84-.11,7.25.66.58,1.34,1.16,2,1.73-3.16.91-6.31,1.83-9.46,2.83ZM226.91,198c-3.34.29-6.68.62-10,1,.71-.84,1.42-1.68,2.13-2.5-.33-1.12-.65-2.24-1-3.36q-3.33.45-6.64.93c-.37,1.21-.73,2.43-1.08,3.64.7.65,1.4,1.29,2.12,1.93-3.35.55-6.69,1.19-10,1.85.87-1,1.75-1.92,2.63-2.88.84-2.84,1.67-5.67,2.51-8.49s1.69-5.61,2.54-8.41c-.42-.74-.83-1.5-1.25-2.25,4.1-.61,8.2-1.11,12.31-1.57-.45.86-.89,1.72-1.34,2.57l2.27,7.7c.75,2.57,1.52,5.15,2.28,7.72.85.7,1.7,1.38,2.55,2.11Zm-10.19-9.23c-.3-1-.61-2-.92-3s-.61-2-.92-3.05c-.34,1.1-.68,2.2-1,3.29s-.66,2.21-1,3.31c1.28-.19,2.56-.35,3.84-.51Zm16.73,8.88c.68-.81,1.38-1.6,2.08-2.39q0-3.47.11-6.93t.11-6.93c-1.54.05-3.06.11-4.58.18l-3.06,1.89c0-1,0-2,0-3.08s0-2.05.05-3.07q10.31-.56,20.59-.5c0,1,0,2.08-.05,3.12s0,2.08,0,3.11l-3.22-1.76h-4.41q-.06,3.51-.11,7t-.11,7c.66.74,1.33,1.49,2,2.23-3.15,0-6.29,0-9.42.11Zm22.18.52c.68-.75,1.38-1.49,2.08-2.23q0-3.54.11-7.08t.11-7.08c-1.53-.11-3.05-.19-4.57-.26l-3,1.59c0-1,0-2.08.05-3.12s0-2.07,0-3.11q10.26.42,20.55,1.49c0,1.07,0,2.14-.05,3.2s0,2.14-.05,3.2l-3.2-2.12c-1.48-.17-2.95-.33-4.42-.45,0,2.39-.07,4.79-.11,7.18s-.08,4.79-.11,7.18l2,2.54c-3.14-.37-6.28-.7-9.41-.93Zm18.31-3.12c0-1.82.05-3.64.08-5.47l.09-5.47a4.84,4.84,0,0,1,.46-2,4.39,4.39,0,0,1,1.21-1.52,4.59,4.59,0,0,1,1.78-.89,5.18,5.18,0,0,1,2.16-.11c2.46.38,4.91.83,7.37,1.27a5.92,5.92,0,0,1,2.09.8,6.91,6.91,0,0,1,1.71,1.53,7,7,0,0,1,1.14,2,5.93,5.93,0,0,1,.39,2.23l-.08,5.59-.09,5.59a4.69,4.69,0,0,1-.46,2,3.93,3.93,0,0,1-1.2,1.44,4.27,4.27,0,0,1-1.75.76,5.3,5.3,0,0,1-2.09-.06c-2.46-.5-4.91-1-7.37-1.43a7,7,0,0,1-2.15-.83,7.43,7.43,0,0,1-1.74-1.4,6.32,6.32,0,0,1-1.16-1.86,5.35,5.35,0,0,1-.39-2.14Zm13.35.6.06-3.76.06-3.77a2.73,2.73,0,0,0-.71-1.86,3,3,0,0,0-1.78-1l-3.27-.6a2.35,2.35,0,0,0-1,0,2,2,0,0,0-1.37,1.06,2.14,2.14,0,0,0-.22.91c0,1.24,0,2.49-.05,3.73l-.06,3.72a2.36,2.36,0,0,0,.18,1,2.75,2.75,0,0,0,.54.84,3.27,3.27,0,0,0,.8.64,3,3,0,0,0,1,.34l3.27.63a2.3,2.3,0,0,0,1.79-.33,1.75,1.75,0,0,0,.77-1.54Zm9.14,3.86.09-5.61.09-5.61a4.64,4.64,0,0,1,.46-2,4,4,0,0,1,1.22-1.47,3.94,3.94,0,0,1,1.78-.73,5,5,0,0,1,2.16.11c2.44.62,4.89,1.25,7.34,2a6.82,6.82,0,0,1,2.09,1A8,8,0,0,1,314.5,191a6.33,6.33,0,0,1,.41,2.29l-.09,5.69-.09,5.68a4.46,4.46,0,0,1-.47,2,3.72,3.72,0,0,1-2.94,2,5,5,0,0,1-2.1-.19c-2.45-.73-4.9-1.43-7.34-2.08a6.67,6.67,0,0,1-2.15-1,8.39,8.39,0,0,1-1.74-1.62,7.9,7.9,0,0,1-1.16-2,6,6,0,0,1-.4-2.24Zm13.34,1.78.06-3.84c0-1.27,0-2.56.06-3.84a3.06,3.06,0,0,0-.71-2,3.4,3.4,0,0,0-1.77-1.23c-1.1-.32-2.19-.6-3.27-.88a2.31,2.31,0,0,0-1,0,1.93,1.93,0,0,0-.81.31,1.79,1.79,0,0,0-.57.65,2.07,2.07,0,0,0-.21.91l-.06,3.82-.06,3.82a2.71,2.71,0,0,0,.18,1,3.37,3.37,0,0,0,.54.91,3.64,3.64,0,0,0,.8.71,3.19,3.19,0,0,0,1,.42c1.09.28,2.17.59,3.27.92a2.14,2.14,0,0,0,1.79-.16,1.71,1.71,0,0,0,.77-1.52Z"/><path class="cls-6" d="M297.69,196.13l-.06,3.44a5.41,5.41,0,0,0,.07.91,5,5,0,0,0,.25.88,5.15,5.15,0,0,0,.42.89,6.26,6.26,0,0,0,.56.82,6,6,0,0,0,.69.74,6.3,6.3,0,0,0,.79.64,5.77,5.77,0,0,0,.85.49,6,6,0,0,0,.93.33c1.27.34,2.49.68,3.68,1s2.42.69,3.69,1.07h0a4.47,4.47,0,0,0,.84.17,3.84,3.84,0,0,0,.76,0,3.23,3.23,0,0,0,.68-.16,2.41,2.41,0,0,0,.53-.28,3,3,0,0,0,.46-.41,3.27,3.27,0,0,0,.36-.55,2.8,2.8,0,0,0,.24-.67,3.47,3.47,0,0,0,.1-.82l.06-3.85-2.6-.83,0,1.41a3.34,3.34,0,0,1-.33,1.43,2.65,2.65,0,0,1-1,1.09,3,3,0,0,1-1.35.45h0a3.88,3.88,0,0,1-1.41-.16l-1.62-.47-1.61-.44A4.52,4.52,0,0,1,303,203h0a3.55,3.55,0,0,1-.64-.34h0a3.85,3.85,0,0,1-.57-.43h0a4.81,4.81,0,0,1-.5-.51,4,4,0,0,1-.42-.6,4.21,4.21,0,0,1-.31-.64,3.35,3.35,0,0,1-.21-.73,3.17,3.17,0,0,1-.06-.75l0-2.19-2.6-.69Zm-108.91,7.51-.22.33,1.52-.46,2.6-.76-.33-.29-.42-.37v-.56l.1-6.37c-1,.28-2,.56-2.93.86l-.11,7v.35l-.2.3Zm33-6.33,2.13-.2-.31-.25-.28-.24-.11-.35c-.26-.87-.63-2.13-1.15-3.86-.24-.81-.51-1.75-.84-2.86q-6.45.69-12.77,1.83l-1,3.37L206.19,199l-.08.26-.19.21-.14.15-.05,0,1.48-.28,2.61-.47-.26-.23h0l-.05,0-.54-.5.21-.72.53-1.83c.24-.82.44-1.49.55-1.83l.22-.73.76-.11,3.32-.47,3.33-.46,1-.14.29,1,.17.61c.29,1,.57,2,.8,2.74l.18.63-.43.5-.16.18,2-.21Zm14.64-1.21-.3.34,2,0,2.05,0-.23-.25-.31-.36v-.46l.11-6.82-2.92,0-.11,6.77v.44l-.3.34Zm22.16.7-.39.41,2.26.22,1.86.19-.22-.27-.27-.34v-.43l.11-7-2.92-.28-.1,6.69v.46l-.32.34Zm16.62-5.44-.06,3.75a4.54,4.54,0,0,0,.06.85,4.6,4.6,0,0,0,.25.83,5.68,5.68,0,0,0,.39.78,6.76,6.76,0,0,0,.54.72,5.72,5.72,0,0,0,.67.62,5.5,5.5,0,0,0,.79.54,7,7,0,0,0,.87.43,5.47,5.47,0,0,0,.9.26l1.52.29c1.88.36,3.76.72,5.86,1.15a5.75,5.75,0,0,0,.87.11,3.42,3.42,0,0,0,1.44-.27,3,3,0,0,0,.58-.33h0a2.39,2.39,0,0,0,.46-.44,3.29,3.29,0,0,0,.37-.57,3.21,3.21,0,0,0,.24-.7,3.9,3.9,0,0,0,.1-.81l.06-4.06-2.59-.59,0,1.79a3.4,3.4,0,0,1-.32,1.41,2.85,2.85,0,0,1-1,1.1,3.18,3.18,0,0,1-1.29.53h0a3.88,3.88,0,0,1-1.4,0l-1.39-.27-1.89-.36a4.57,4.57,0,0,1-.68-.18,3.93,3.93,0,0,1-.66-.3,5.25,5.25,0,0,1-.58-.38h0a3.74,3.74,0,0,1-.51-.48,3.64,3.64,0,0,1-.43-.56,3.43,3.43,0,0,1-.33-.63,3.53,3.53,0,0,1-.22-.72,3.81,3.81,0,0,1-.07-.75l0-2.3-2.59-.44Z"/><path class="cls-1" d="M276,210.24a95,95,0,0,1,25,5.67c2.46,10.52,2.66,10.79,9.38,19.52-17.44-.08-45,1.35-61.38,8q-27.65-4-42.3-11.72c-7.3-3.84-3.47-7.22,2.73-9.76a79.43,79.43,0,0,1,10.26-3.21A289.89,289.89,0,0,1,276,210.24Z"/><path class="cls-1" d="M193.77,236.09c-5.46-10.54,2.26-16.64,12.64-20.13a30,30,0,0,1-15-2.62c-5.94,1.48-20.94,6.46-21.07,13.48-.14,7.63,17.76,9.8,23.39,9.27Z"/><path class="cls-5" d="M192.14,234.19c-1.55-.1-3.11-.21-4.67-.4s-3.1-.44-4.64-.71-3-.64-4.51-1.05a23.75,23.75,0,0,1-4.09-1.57,10.28,10.28,0,0,0,.89.76l1.19.8a15,15,0,0,0,3.35,1.15c1.27.28,2.59.46,3.94.64s2.77.26,4.19.33,2.89.07,4.35.05ZM198.35,217c-.63-.13-1.26-.27-1.88-.45s-1.22-.37-1.81-.57-1.13-.45-1.66-.71a13,13,0,0,1-1.46-.86l-1.09.33-1.11.33a21.1,21.1,0,0,0,2.16.74c.75.21,1.51.38,2.28.55s1.54.28,2.3.39,1.52.19,2.27.25Zm-1.64,1.14c-.75-.14-1.5-.3-2.24-.49s-1.45-.4-2.15-.62-1.37-.49-2-.77a13.19,13.19,0,0,1-1.74-1l-1.07.36-1.07.37a23.64,23.64,0,0,0,2.46.82c.85.23,1.73.41,2.6.59s1.75.31,2.63.43,1.74.2,2.59.27Zm-1.4,1.23c-.88-.15-1.76-.32-2.63-.52s-1.7-.44-2.53-.68-1.61-.53-2.37-.84a15.52,15.52,0,0,1-2.08-1c-.36.12-.69.25-1,.38l-1,.4a25.07,25.07,0,0,0,2.78.9c1,.25,1.95.45,2.94.65s2,.33,3,.46,2,.21,2.94.29Zm-1.18,1.3c-1-.16-2-.34-3-.55s-2-.47-2.92-.73-1.86-.57-2.75-.9A19.39,19.39,0,0,1,183,217.3c-.33.13-.65.28-.95.42l-.92.43a29.49,29.49,0,0,0,3.1,1c1.08.27,2.18.49,3.28.7s2.22.36,3.33.49,2.2.23,3.29.31Zm-1,1.36c-1.14-.17-2.28-.36-3.41-.58s-2.22-.5-3.31-.77-2.12-.61-3.13-1a21.39,21.39,0,0,1-2.79-1.23c-.31.15-.58.3-.85.45l-.82.45a27.33,27.33,0,0,0,3.39,1c1.19.29,2.4.52,3.62.74s2.44.38,3.66.52,2.44.25,3.64.33Zm-.82,1.4c-1.27-.17-2.52-.36-3.77-.6s-2.46-.51-3.67-.8-2.36-.64-3.5-1a23.85,23.85,0,0,1-3.13-1.3l-.74.47-.72.48a30.81,30.81,0,0,0,3.67,1.11c1.28.3,2.6.54,3.92.78s2.65.39,4,.54,2.64.26,4,.34Zm-.66,1.44c-1.37-.18-2.73-.37-4.09-.61s-2.68-.53-4-.83-2.57-.66-3.81-1A26.82,26.82,0,0,1,176.3,221l-.62.5-.62.5a31.56,31.56,0,0,0,3.9,1.17c1.37.31,2.78.56,4.19.8s2.84.41,4.26.56,2.84.25,4.25.34Zm-.49,1.47c-1.47-.18-2.92-.37-4.37-.61s-2.87-.54-4.28-.84-2.77-.68-4.11-1.09a27.23,27.23,0,0,1-3.71-1.44l-.51.53a5.76,5.76,0,0,0-.47.53,31,31,0,0,0,4.06,1.2c1.44.33,2.91.58,4.4.82s3,.41,4.49.57,3,.25,4.5.33Zm-.32,1.5c-1.54-.17-3.08-.36-4.6-.6s-3-.53-4.52-.84-2.92-.69-4.34-1.1a30.49,30.49,0,0,1-3.93-1.5l-.38.55a4.89,4.89,0,0,0-.27.57A30.69,30.69,0,0,0,177,226.1c1.48.33,3,.58,4.53.82s3.09.41,4.65.56,3.13.23,4.69.31Zm-.13,1.53c-1.59-.16-3.18-.34-4.76-.57s-3.15-.54-4.7-.84-3-.69-4.52-1.11a27.92,27.92,0,0,1-4.09-1.54,2.51,2.51,0,0,0-.18.59c0,.2-.05.4-.08.6a27.79,27.79,0,0,0,4.2,1.25c1.51.33,3,.57,4.61.81s3.15.4,4.74.53,3.19.22,4.78.28Zm.12,1.57c-1.61-.15-3.24-.31-4.85-.54s-3.2-.51-4.79-.81-3.12-.68-4.62-1.11a28,28,0,0,1-4.21-1.56c0,.21,0,.41.08.63a2.4,2.4,0,0,0,.16.64,26,26,0,0,0,4.11,1.24c1.48.32,3,.56,4.57.79s3.16.37,4.75.49,3.2.18,4.8.23Zm.42,1.61c-1.61-.12-3.22-.26-4.83-.47s-3.21-.49-4.79-.78-3.13-.66-4.64-1.09a25.39,25.39,0,0,1-4.19-1.57,3.66,3.66,0,0,0,.38.68l.52.69a21.08,21.08,0,0,0,3.89,1.22c1.42.31,2.89.53,4.38.73s3.05.34,4.59.44,3.12.13,4.69.15Z"/><path class="cls-5" d="M264.73,235.7l-4.91,1.24-5.06,1.31c-1.7.47-3.39.93-5.06,1.46s-3.19,1.11-4.7,1.72l1.81.32,1.82.32A32.51,32.51,0,0,1,252,240.3c1.28-.56,2.62-1.06,4-1.57s2.83-1,4.28-1.51l4.43-1.52Zm-26.2-18.62c-2.71.51-5.45,1-8.15,1.43s-5.22,1-7.63,1.44-4.47,1-6.55,1.52-3.88,1.06-5.68,1.59a23.53,23.53,0,0,0-3.83,1.75,4.27,4.27,0,0,0-1.24,1.14c2.58-.86,5.16-1.72,7.81-2.53s5.41-1.58,8.22-2.34,5.7-1.45,8.57-2.09,5.72-1.25,8.48-1.91Zm.32,2c-2.92.59-5.9,1.12-8.87,1.67s-5.86,1.14-8.73,1.76-5.63,1.28-8.37,2-5.22,1.39-7.77,2.11a1.4,1.4,0,0,0,0,.84,7.84,7.84,0,0,0,.23.79c2.58-.87,5.22-1.76,7.91-2.59s5.48-1.62,8.29-2.39,5.7-1.48,8.6-2.15,5.83-1.32,8.67-2Zm1.62,1.72c-3,.61-6,1.17-9,1.76s-6,1.21-8.91,1.85-5.78,1.33-8.58,2.06-5.47,1.48-8.14,2.23l.65.7a7,7,0,0,0,.87.65c2.53-.89,5.1-1.77,7.73-2.6s5.41-1.62,8.19-2.39,5.65-1.5,8.54-2.18,5.82-1.37,8.67-2.08Zm2.06,1.6c-2.94.63-5.94,1.2-8.95,1.8s-5.94,1.24-8.88,1.9-5.76,1.35-8.56,2.09-5.49,1.51-8.16,2.28a10,10,0,0,0,1,.62l1.14.57c2.47-.88,5-1.76,7.54-2.59s5.31-1.61,8-2.38,5.53-1.5,8.36-2.19,5.7-1.38,8.49-2.1Zm2.31,1.54c-2.87.63-5.8,1.21-8.74,1.81s-5.83,1.25-8.71,1.9-5.68,1.36-8.45,2.1-5.39,1.52-8,2.3c.39.19.8.37,1.24.55l1.31.53c2.37-.87,4.79-1.74,7.28-2.56s5.13-1.59,7.76-2.36,5.37-1.48,8.11-2.18,5.53-1.37,8.24-2.09Zm2.47,1.5c-2.78.62-5.61,1.2-8.46,1.8s-5.66,1.24-8.45,1.89-5.53,1.35-8.22,2.08-5.27,1.5-7.84,2.28c.45.18.93.34,1.4.51l1.43.5c2.26-.86,4.57-1.72,7-2.52s4.93-1.57,7.46-2.32,5.16-1.46,7.8-2.15,5.3-1.36,7.92-2.07Zm2.56,1.46c-2.67.61-5.39,1.19-8.11,1.78s-5.44,1.22-8.14,1.86-5.33,1.32-7.93,2-5.07,1.48-7.55,2.26l1.51.47,1.53.47c2.14-.84,4.32-1.68,6.59-2.46s4.69-1.53,7.11-2.27,4.91-1.43,7.43-2.1,5.05-1.35,7.56-2.05Zm2.61,1.45c-2.54.59-5.14,1.16-7.72,1.74s-5.18,1.19-7.75,1.81-5.11,1.29-7.6,2-4.83,1.45-7.19,2.21l1.58.45,1.6.44c2-.82,4-1.64,6.19-2.4s4.43-1.48,6.72-2.19,4.64-1.4,7-2.06,4.78-1.31,7.16-2Zm2.62,1.43c-2.4.57-4.83,1.12-7.28,1.69s-4.89,1.15-7.33,1.75-4.83,1.25-7.18,1.93-4.58,1.4-6.8,2.14c.53.15,1.08.29,1.64.43l1.66.41c1.85-.79,3.75-1.59,5.73-2.31s4.15-1.43,6.28-2.12,4.36-1.34,6.58-2,4.47-1.28,6.7-1.94Zm2.59,1.43-6.79,1.62c-2.29.54-4.57,1.11-6.85,1.68s-4.54,1.18-6.74,1.84-4.3,1.35-6.36,2.07l1.69.4,1.71.4c1.68-.77,3.42-1.53,5.24-2.23s3.83-1.35,5.8-2,4-1.28,6.09-1.9l6.21-1.87Zm2.53,1.45L254,234.19c-2.11.51-4.22,1.05-6.33,1.59s-4.2,1.12-6.25,1.74-4,1.28-5.87,2l1.74.38,1.75.37c1.49-.72,3.05-1.45,4.7-2.1s3.48-1.28,5.28-1.9,3.68-1.21,5.55-1.8l5.68-1.77Zm2.41,1.47L257,235.55c-1.91.47-3.83,1-5.74,1.47s-3.83,1-5.7,1.61-3.62,1.21-5.34,1.87l1.79.35,1.78.34c1.29-.68,2.64-1.35,4.1-1.95s3.09-1.19,4.69-1.76,3.29-1.13,5-1.68l5.1-1.66Z"/><path class="cls-5" d="M275.15,235.21c2.36-.46,4.79-.86,7.28-1.17s5.06-.56,7.61-.8,5.17-.42,7.77-.56a64.06,64.06,0,0,1,8,0l.69.71c.31.24.64.47,1,.71a70.11,70.11,0,0,0-8.49-.39c-2.76,0-5.5.11-8.22.21s-5.36.25-8,.45-5.13.49-7.59.84ZM257,214.08c3-.74,6.26-1.31,9.54-1.78s6.63-.9,10-1.32l.25,0q1.54.23,3.06.48l-2.9.24c-3.39.3-6.77.6-10.14,1s-6.65.82-9.79,1.45Zm1.51,1.76c3-.72,6.13-1.27,9.34-1.73s6.49-.86,9.77-1.27c2-.24,4-.48,6-.7,1.12.22,2.23.46,3.34.71q-4.49.32-9,.69c-3.32.28-6.63.56-9.93.91s-6.5.79-9.58,1.39ZM260,217.6c2.91-.69,6-1.23,9.11-1.67s6.34-.84,9.54-1.23,6.44-.74,9.68-1.07l1.31-.13c1.22.31,2.43.63,3.63,1-1.5.06-3,.14-4.48.24-3.24.19-6.5.44-9.74.69s-6.48.53-9.7.87S263,217,260,217.6Zm1.51,1.76c2.84-.66,5.83-1.19,8.89-1.61s6.18-.81,9.3-1.18,6.29-.71,9.46-1c2-.19,4-.37,6.06-.51,1.33.41,2.65.83,4,1.27v0c-3.22,0-6.4.12-9.58.3s-6.35.4-9.51.64-6.33.5-9.47.81-6.19.73-9.12,1.28Zm1.52,1.77c2.76-.65,5.67-1.16,8.64-1.57s6-.77,9.08-1.13,6.13-.67,9.21-1,6.22-.52,9.38-.63c.07.25.14.49.22.74s.14.5.22.75c-3.15,0-6.26,0-9.36.21s-6.2.37-9.29.59-6.16.47-9.22.77-6,.69-8.88,1.23Zm1.51,1.76c2.7-.62,5.52-1.12,8.41-1.52s5.87-.74,8.83-1.07,6-.64,9-.91,6.06-.48,9.15-.55c.07.25.14.5.22.75s.15.49.22.74c-3.08-.08-6.11,0-9.14.13s-6,.33-9.06.53-6,.44-9,.72-5.87.67-8.66,1.18Zm1.52,1.76c2.63-.6,5.37-1.07,8.18-1.46s5.71-.71,8.59-1,5.83-.61,8.76-.85,5.92-.44,8.94-.47c.07.24.15.49.23.74l.24.75c-3-.12-6-.07-8.94,0s-5.89.29-8.83.47-5.85.41-8.75.68-5.7.64-8.42,1.12Zm1.52,1.76c2.55-.57,5.22-1,7.95-1.41s5.55-.68,8.36-1,5.68-.57,8.55-.8,5.76-.39,8.72-.39l.24.74c.09.25.17.5.26.74-3-.15-5.86-.13-8.74,0s-5.75.26-8.62.43-5.7.37-8.53.63-5.55.61-8.19,1.07Zm1.51,1.76c2.49-.55,5.09-1,7.74-1.35s5.42-.66,8.15-.94,5.54-.54,8.34-.75,5.61-.35,8.51-.31c.08.25.18.49.27.74l.27.74c-2.89-.19-5.73-.19-8.55-.11s-5.62.22-8.42.37-5.57.35-8.33.59-5.4.59-8,1Zm1.52,1.76c2.42-.53,4.95-1,7.55-1.3s5.27-.63,7.95-.91,5.4-.5,8.13-.69,5.49-.3,8.32-.23c.1.25.21.49.31.74l.31.73c-2.84-.22-5.63-.24-8.39-.18s-5.5.19-8.24.33-5.45.31-8.14.55-5.28.55-7.8,1Zm1.51,1.76c2.38-.5,4.85-.93,7.39-1.25s5.16-.61,7.78-.87,5.29-.47,8-.65a78.79,78.79,0,0,1,8.16-.15l.35.74c.12.24.24.48.38.73a74.74,74.74,0,0,0-8.29-.26c-2.71.05-5.41.16-8.11.28s-5.34.29-8,.51-5.17.53-7.65.92Zm1.52,1.76c2.34-.48,4.78-.89,7.27-1.21s5.08-.57,7.65-.82,5.21-.46,7.83-.61a69.35,69.35,0,0,1,8-.07c.14.24.28.48.43.72s.35.48.52.73a69.9,69.9,0,0,0-8.25-.33c-2.69,0-5.38.13-8.05.24s-5.29.27-7.89.48-5.11.5-7.55.87Z"/></g></g></svg>